<mxfile host="app.diagrams.net" agent="Mozilla/5.0 (Macintosh; Intel Mac OS X 10_15_7) AppleWebKit/537.36 (KHTML, like Gecko) Chrome/128.0.0.0 Safari/537.36" version="24.7.14">
  <diagram name="Page-1" id="4bd5d27a-524c-7e24-5d5f-89a86ee4fca1">
    <mxGraphModel dx="1980" dy="-205" grid="1" gridSize="10" guides="1" tooltips="1" connect="1" arrows="1" fold="1" page="1" pageScale="1" pageWidth="1100" pageHeight="850" background="none" math="0" shadow="0">
      <root>
        <mxCell id="0" />
        <mxCell id="1" parent="0" />
        <mxCell id="pt-I9l3c0E-_gEPRh6XU-58" value="" style="edgeStyle=entityRelationEdgeStyle;startArrow=none;endArrow=none;segment=10;curved=1;sourcePerimeterSpacing=0;targetPerimeterSpacing=0;rounded=0;exitX=0.048;exitY=0.883;exitDx=0;exitDy=0;exitPerimeter=0;" edge="1" parent="1" source="pt-I9l3c0E-_gEPRh6XU-222" target="pt-I9l3c0E-_gEPRh6XU-239">
          <mxGeometry relative="1" as="geometry">
            <mxPoint x="1132.48" y="2395.03" as="sourcePoint" />
            <Array as="points">
              <mxPoint x="1142.48" y="2375.03" />
              <mxPoint x="1218" y="2390" />
            </Array>
          </mxGeometry>
        </mxCell>
        <mxCell id="pt-I9l3c0E-_gEPRh6XU-59" value="" style="edgeStyle=entityRelationEdgeStyle;startArrow=none;endArrow=none;segment=10;curved=1;sourcePerimeterSpacing=0;targetPerimeterSpacing=0;rounded=0;exitX=0.004;exitY=0.454;exitDx=0;exitDy=0;exitPerimeter=0;" edge="1" parent="1" source="pt-I9l3c0E-_gEPRh6XU-218" target="pt-I9l3c0E-_gEPRh6XU-234">
          <mxGeometry relative="1" as="geometry">
            <mxPoint x="679.6" y="2125.6" as="sourcePoint" />
            <Array as="points">
              <mxPoint x="689.6" y="2105.6" />
              <mxPoint x="670" y="2110" />
              <mxPoint x="670" y="2110" />
              <mxPoint x="660" y="2110" />
            </Array>
          </mxGeometry>
        </mxCell>
        <mxCell id="pt-I9l3c0E-_gEPRh6XU-60" value="" style="edgeStyle=entityRelationEdgeStyle;startArrow=none;endArrow=none;segment=10;curved=1;sourcePerimeterSpacing=0;targetPerimeterSpacing=0;rounded=0;entryX=1;entryY=0.5;entryDx=0;entryDy=0;exitX=0.807;exitY=0.89;exitDx=0;exitDy=0;exitPerimeter=0;" edge="1" parent="1" source="pt-I9l3c0E-_gEPRh6XU-97" target="pt-I9l3c0E-_gEPRh6XU-233">
          <mxGeometry relative="1" as="geometry">
            <mxPoint x="580" y="2300" as="sourcePoint" />
            <Array as="points">
              <mxPoint x="487.91" y="2287.11" />
              <mxPoint x="560" y="2300" />
              <mxPoint x="550" y="2300" />
            </Array>
          </mxGeometry>
        </mxCell>
        <mxCell id="pt-I9l3c0E-_gEPRh6XU-61" value="" style="rounded=0;whiteSpace=wrap;html=1;strokeColor=none;align=center;verticalAlign=top;fontFamily=Helvetica;fontSize=12;fontColor=default;fillColor=#CCCCCC;container=0;movable=1;resizable=1;rotatable=1;deletable=1;editable=1;locked=0;connectable=1;" vertex="1" parent="1">
          <mxGeometry x="118.56" y="2401.93" width="410.73" height="103.55" as="geometry" />
        </mxCell>
        <mxCell id="pt-I9l3c0E-_gEPRh6XU-62" value="" style="rounded=0;whiteSpace=wrap;html=1;strokeColor=none;align=center;verticalAlign=top;fontFamily=Helvetica;fontSize=12;fontColor=default;fillColor=#CCCCCC;container=0;movable=1;resizable=1;rotatable=1;deletable=1;editable=1;locked=0;connectable=1;" vertex="1" parent="1">
          <mxGeometry x="530" y="2347.03" width="60" height="122.97" as="geometry" />
        </mxCell>
        <mxCell id="pt-I9l3c0E-_gEPRh6XU-63" value="" style="rounded=0;whiteSpace=wrap;html=1;strokeColor=default;align=center;verticalAlign=top;fontFamily=Helvetica;fontSize=12;fontColor=default;fillColor=default;movable=1;resizable=1;rotatable=1;deletable=1;editable=1;locked=0;connectable=1;container=0;" vertex="1" parent="1">
          <mxGeometry x="1032.97" y="2447" width="56.03" height="48" as="geometry" />
        </mxCell>
        <mxCell id="pt-I9l3c0E-_gEPRh6XU-64" value="" style="verticalLabelPosition=bottom;html=1;verticalAlign=top;align=center;shape=mxgraph.floorplan.window;strokeColor=default;fontFamily=Helvetica;fontSize=12;fontColor=default;fillColor=default;rotation=0;container=0;movable=1;resizable=1;rotatable=1;deletable=1;editable=1;locked=0;connectable=1;" vertex="1" parent="1">
          <mxGeometry x="1200.04" y="2120" width="51.965" height="10" as="geometry" />
        </mxCell>
        <mxCell id="pt-I9l3c0E-_gEPRh6XU-65" value="" style="rounded=0;whiteSpace=wrap;html=1;strokeColor=default;align=center;verticalAlign=top;fontFamily=Helvetica;fontSize=12;fontColor=default;fillColor=#FFFFFF;movable=1;resizable=1;rotatable=1;deletable=1;editable=1;locked=0;connectable=1;container=0;" vertex="1" parent="1">
          <mxGeometry x="1200" y="1820" width="52" height="222" as="geometry" />
        </mxCell>
        <mxCell id="pt-I9l3c0E-_gEPRh6XU-66" value="" style="rounded=0;whiteSpace=wrap;html=1;strokeColor=default;align=center;verticalAlign=top;fontFamily=Helvetica;fontSize=12;fontColor=default;fillColor=#CCCCCC;movable=1;resizable=1;rotatable=1;deletable=1;editable=1;locked=0;connectable=1;container=0;" vertex="1" parent="1">
          <mxGeometry x="1089" y="2447" width="101.04" height="49" as="geometry" />
        </mxCell>
        <mxCell id="pt-I9l3c0E-_gEPRh6XU-67" value="" style="endArrow=none;html=1;rounded=0;fontFamily=Helvetica;fontSize=12;fontColor=default;exitX=1.002;exitY=0.864;exitDx=0;exitDy=0;exitPerimeter=0;entryX=0.993;entryY=-0.037;entryDx=0;entryDy=0;entryPerimeter=0;movable=1;resizable=1;rotatable=1;deletable=1;editable=1;locked=0;connectable=1;" edge="1" parent="1">
          <mxGeometry width="50" height="50" relative="1" as="geometry">
            <mxPoint x="1032.9969" y="2461.1400000000003" as="sourcePoint" />
            <mxPoint x="1032.9969" y="2119.71" as="targetPoint" />
          </mxGeometry>
        </mxCell>
        <mxCell id="pt-I9l3c0E-_gEPRh6XU-68" value="" style="verticalLabelPosition=bottom;html=1;verticalAlign=top;align=center;shape=mxgraph.floorplan.wall;fillColor=strokeColor;direction=south;strokeColor=default;fontFamily=Helvetica;fontSize=12;fontColor=default;container=0;movable=1;resizable=1;rotatable=1;deletable=1;editable=1;locked=0;connectable=1;rotation=90;" vertex="1" parent="1">
          <mxGeometry x="1009" y="1943.67" width="10" height="68.8" as="geometry" />
        </mxCell>
        <mxCell id="pt-I9l3c0E-_gEPRh6XU-69" value="" style="rounded=0;whiteSpace=wrap;html=1;strokeColor=default;align=center;verticalAlign=top;fontFamily=Helvetica;fontSize=12;fontColor=default;fillColor=#FF0000;movable=1;resizable=1;rotatable=1;deletable=1;editable=1;locked=0;connectable=1;container=0;" vertex="1" parent="1">
          <mxGeometry x="743.04" y="1834" width="61.81" height="36.97" as="geometry" />
        </mxCell>
        <mxCell id="pt-I9l3c0E-_gEPRh6XU-70" value="" style="verticalLabelPosition=bottom;html=1;verticalAlign=top;align=center;shape=mxgraph.floorplan.doorDouble;aspect=fixed;strokeColor=default;fontFamily=Helvetica;fontSize=12;fontColor=default;fillColor=default;rotation=-90;movable=1;resizable=1;rotatable=1;deletable=1;editable=1;locked=0;connectable=1;container=0;" vertex="1" parent="1">
          <mxGeometry x="633.5" y="2458" width="47.41" height="25.19" as="geometry" />
        </mxCell>
        <mxCell id="pt-I9l3c0E-_gEPRh6XU-71" value="" style="rounded=0;whiteSpace=wrap;html=1;strokeColor=default;align=center;verticalAlign=top;fontFamily=Helvetica;fontSize=12;fontColor=default;fillColor=#FFFFFF;movable=1;resizable=1;rotatable=1;deletable=1;editable=1;locked=0;connectable=1;container=0;" vertex="1" parent="1">
          <mxGeometry x="609" y="1954" width="30" height="374" as="geometry" />
        </mxCell>
        <mxCell id="pt-I9l3c0E-_gEPRh6XU-72" value="" style="rounded=0;whiteSpace=wrap;html=1;strokeColor=default;align=center;verticalAlign=top;fontFamily=Helvetica;fontSize=12;fontColor=default;fillColor=#CCCCCC;movable=1;resizable=1;rotatable=1;deletable=1;editable=1;locked=0;connectable=1;container=0;" vertex="1" parent="1">
          <mxGeometry x="290" y="1823" width="350" height="131.04" as="geometry" />
        </mxCell>
        <mxCell id="pt-I9l3c0E-_gEPRh6XU-73" value="" style="verticalLabelPosition=bottom;html=1;verticalAlign=top;align=center;shape=mxgraph.floorplan.chair;shadow=0;direction=north;strokeColor=default;fontFamily=Helvetica;fontSize=12;fontColor=default;fillColor=default;container=0;movable=1;resizable=1;rotatable=1;deletable=1;editable=1;locked=0;connectable=1;" vertex="1" parent="1">
          <mxGeometry x="377.99999999999994" y="2074" width="52" height="40" as="geometry" />
        </mxCell>
        <mxCell id="pt-I9l3c0E-_gEPRh6XU-74" value="" style="verticalLabelPosition=bottom;html=1;verticalAlign=top;align=center;shape=mxgraph.floorplan.chair;shadow=0;direction=north;strokeColor=default;fontFamily=Helvetica;fontSize=12;fontColor=default;fillColor=default;container=0;movable=1;resizable=1;rotatable=1;deletable=1;editable=1;locked=0;connectable=1;" vertex="1" parent="1">
          <mxGeometry x="379.28999999999996" y="2164.6800000000003" width="52" height="40" as="geometry" />
        </mxCell>
        <mxCell id="pt-I9l3c0E-_gEPRh6XU-75" value="" style="verticalLabelPosition=bottom;html=1;verticalAlign=top;align=center;shape=mxgraph.floorplan.chair;shadow=0;direction=south;strokeColor=default;fontFamily=Helvetica;fontSize=12;fontColor=default;fillColor=default;container=0;movable=1;resizable=1;rotatable=1;deletable=1;editable=1;locked=0;connectable=1;" vertex="1" parent="1">
          <mxGeometry x="529.29" y="2074" width="52" height="40" as="geometry" />
        </mxCell>
        <mxCell id="pt-I9l3c0E-_gEPRh6XU-76" value="" style="verticalLabelPosition=bottom;html=1;verticalAlign=top;align=center;shape=mxgraph.floorplan.chair;shadow=0;direction=south;strokeColor=default;fontFamily=Helvetica;fontSize=12;fontColor=default;fillColor=default;container=0;movable=1;resizable=1;rotatable=1;deletable=1;editable=1;locked=0;connectable=1;" vertex="1" parent="1">
          <mxGeometry x="529.29" y="2164.68" width="52" height="40" as="geometry" />
        </mxCell>
        <mxCell id="pt-I9l3c0E-_gEPRh6XU-77" value="" style="verticalLabelPosition=bottom;html=1;verticalAlign=top;align=center;shape=mxgraph.floorplan.chair;shadow=0;direction=north;strokeColor=default;fontFamily=Helvetica;fontSize=12;fontColor=default;fillColor=default;container=0;movable=1;resizable=1;rotatable=1;deletable=1;editable=1;locked=0;connectable=1;" vertex="1" parent="1">
          <mxGeometry x="379.28999999999996" y="1982.42" width="52" height="40" as="geometry" />
        </mxCell>
        <mxCell id="pt-I9l3c0E-_gEPRh6XU-78" value="" style="verticalLabelPosition=bottom;html=1;verticalAlign=top;align=center;shape=mxgraph.floorplan.chair;shadow=0;direction=south;strokeColor=default;fontFamily=Helvetica;fontSize=12;fontColor=default;fillColor=default;container=0;movable=1;resizable=1;rotatable=1;deletable=1;editable=1;locked=0;connectable=1;" vertex="1" parent="1">
          <mxGeometry x="529.29" y="1982.42" width="52" height="40" as="geometry" />
        </mxCell>
        <mxCell id="pt-I9l3c0E-_gEPRh6XU-79" value="" style="endArrow=none;html=1;rounded=0;fontFamily=Helvetica;fontSize=12;fontColor=default;entryX=0.79;entryY=0.044;entryDx=0;entryDy=0;entryPerimeter=0;jumpSize=6;movable=1;resizable=1;rotatable=1;deletable=1;editable=1;locked=0;connectable=1;" edge="1" parent="1">
          <mxGeometry width="50" height="50" relative="1" as="geometry">
            <mxPoint x="283.04" y="2015.86" as="sourcePoint" />
            <mxPoint x="126.04285714285764" y="2016.0749999999996" as="targetPoint" />
          </mxGeometry>
        </mxCell>
        <mxCell id="pt-I9l3c0E-_gEPRh6XU-80" value="" style="verticalLabelPosition=bottom;html=1;verticalAlign=top;align=center;shape=mxgraph.floorplan.doorLeft;aspect=fixed;rotation=-90;container=0;movable=1;resizable=1;rotatable=1;deletable=1;editable=1;locked=0;connectable=1;" vertex="1" parent="1">
          <mxGeometry x="287.04" y="2074" width="56" height="59.5" as="geometry" />
        </mxCell>
        <mxCell id="pt-I9l3c0E-_gEPRh6XU-81" value="" style="verticalLabelPosition=bottom;html=1;verticalAlign=top;align=center;shape=stencil(zVXRboMgFP0aH00Upunr1m3/cbW0klIwQKv9+yGUrKh1zG3JkiZ6z5F7z7k2xwRvVQMtSVAGqiW1TvBrgtAFJIWKGRgZpnFgmbmSw4k45AV0o88VcrjSUhxJR3f6doDyhkiqHds5LN/YLvgtyZ4NOvzwthacm9lUcGWx9xFfQX08SHHmu4DwtBx0T2T6gWXh6t7VN/YaVNORBnkwFW/3QpIFOXvKmNvFTGf/UAvDliaEp0/iQj4156HovJhXHbYAWZsbBvJAUnOf7hkcAtNy1F1ew1p1hLR3x/Jgj75Ln0JPVSqFhuEFzi05Si6j/N6xP/SdFtGO8cgxinKcF0W05VWei9Az/hemUbzpYoXpVS3++K/tn4qw/BSlt2ZCLYWBwR/kgYnnX02SUZCUS+p/qGuIwVowIU3prnamP7c0lzBGW7uxW6ZvwkgPEz3HoSv0hatB2Axt7U6i3aLuE2mBDw==);rotation=-90;container=0;movable=1;resizable=1;rotatable=1;deletable=1;editable=1;locked=0;connectable=1;" vertex="1" parent="1">
          <mxGeometry x="96.23" y="1843.23" width="129.87" height="77.25" as="geometry" />
        </mxCell>
        <mxCell id="pt-I9l3c0E-_gEPRh6XU-82" value="" style="verticalLabelPosition=bottom;html=1;verticalAlign=top;align=center;shape=mxgraph.floorplan.doorSlidingGlass;dx=0.31;container=0;movable=1;resizable=1;rotatable=1;deletable=1;editable=1;locked=0;connectable=1;" vertex="1" parent="1">
          <mxGeometry x="123" y="1991" width="159" height="50" as="geometry" />
        </mxCell>
        <mxCell id="pt-I9l3c0E-_gEPRh6XU-83" value="" style="verticalLabelPosition=bottom;html=1;verticalAlign=top;align=center;shape=mxgraph.floorplan.sink_1;rotation=-90;container=0;movable=1;resizable=1;rotatable=1;deletable=1;editable=1;locked=0;connectable=1;" vertex="1" parent="1">
          <mxGeometry x="128.60000000000002" y="2034.03" width="41.94" height="35" as="geometry" />
        </mxCell>
        <mxCell id="pt-I9l3c0E-_gEPRh6XU-84" value="" style="verticalLabelPosition=bottom;html=1;verticalAlign=top;align=center;shape=mxgraph.floorplan.toilet;rotation=-90;container=0;movable=1;resizable=1;rotatable=1;deletable=1;editable=1;locked=0;connectable=1;" vertex="1" parent="1">
          <mxGeometry x="141.54000000000002" y="2188.0299999999997" width="50" height="67" as="geometry" />
        </mxCell>
        <mxCell id="pt-I9l3c0E-_gEPRh6XU-86" value="" style="verticalLabelPosition=bottom;html=1;verticalAlign=top;align=center;shape=mxgraph.floorplan.doorAccordion;dx=0.62;container=0;movable=1;resizable=1;rotatable=1;deletable=1;editable=1;locked=0;connectable=1;" vertex="1" parent="1">
          <mxGeometry x="224.04000000000002" y="2169.54" width="59" height="8.99" as="geometry" />
        </mxCell>
        <mxCell id="pt-I9l3c0E-_gEPRh6XU-87" value="" style="verticalLabelPosition=bottom;html=1;verticalAlign=top;align=center;shape=mxgraph.floorplan.wallCorner;fillColor=strokeColor;direction=west;container=0;movable=1;resizable=1;rotatable=1;deletable=1;editable=1;locked=0;connectable=1;" vertex="1" parent="1">
          <mxGeometry x="112.54" y="2132" width="180" height="137.03" as="geometry" />
        </mxCell>
        <mxCell id="pt-I9l3c0E-_gEPRh6XU-88" value="" style="verticalLabelPosition=bottom;html=1;verticalAlign=top;align=center;shape=mxgraph.floorplan.sink_1;rotation=90;container=0;movable=1;resizable=1;rotatable=1;deletable=1;editable=1;locked=0;connectable=1;" vertex="1" parent="1">
          <mxGeometry x="257.54" y="2208.5299999999997" width="24" height="26" as="geometry" />
        </mxCell>
        <mxCell id="pt-I9l3c0E-_gEPRh6XU-89" value="" style="verticalLabelPosition=bottom;html=1;verticalAlign=top;align=center;shape=mxgraph.floorplan.elevator;strokeColor=default;fontFamily=Helvetica;fontSize=12;fontColor=default;fillColor=default;container=0;movable=1;resizable=1;rotatable=1;deletable=1;editable=1;locked=0;connectable=1;" vertex="1" parent="1">
          <mxGeometry x="123.54" y="2030.53" width="9" height="42" as="geometry" />
        </mxCell>
        <mxCell id="pt-I9l3c0E-_gEPRh6XU-91" value="" style="verticalLabelPosition=bottom;html=1;verticalAlign=top;align=center;shape=mxgraph.floorplan.wall;fillColor=strokeColor;direction=south;strokeColor=default;fontFamily=Helvetica;fontSize=12;fontColor=default;container=0;movable=1;resizable=1;rotatable=1;deletable=1;editable=1;locked=0;connectable=1;" vertex="1" parent="1">
          <mxGeometry x="112.54" y="2011" width="10" height="9.25" as="geometry" />
        </mxCell>
        <mxCell id="pt-I9l3c0E-_gEPRh6XU-92" value="" style="verticalLabelPosition=bottom;html=1;verticalAlign=top;align=center;shape=mxgraph.floorplan.doorLeft;aspect=fixed;rotation=90;container=0;movable=1;resizable=1;rotatable=1;deletable=1;editable=1;locked=0;connectable=1;" vertex="1" parent="1">
          <mxGeometry x="59.2" y="2267.76" width="56.5" height="60.03" as="geometry" />
        </mxCell>
        <mxCell id="pt-I9l3c0E-_gEPRh6XU-93" value="" style="verticalLabelPosition=bottom;html=1;verticalAlign=top;align=center;shape=mxgraph.floorplan.stairs;direction=south;strokeColor=default;fontFamily=Helvetica;fontSize=12;fontColor=default;fillColor=default;rotation=90;container=0;movable=1;resizable=1;rotatable=1;deletable=1;editable=1;locked=0;connectable=1;" vertex="1" parent="1">
          <mxGeometry x="189.05" y="2244.54" width="125" height="175.01" as="geometry" />
        </mxCell>
        <mxCell id="pt-I9l3c0E-_gEPRh6XU-94" value="" style="rounded=0;whiteSpace=wrap;html=1;strokeColor=none;align=center;verticalAlign=top;fontFamily=Helvetica;fontSize=12;fontColor=default;fillColor=#CCCCCC;container=0;movable=1;resizable=1;rotatable=1;deletable=1;editable=1;locked=0;connectable=1;" vertex="1" parent="1">
          <mxGeometry x="112" y="2337.03" width="478" height="58" as="geometry" />
        </mxCell>
        <mxCell id="pt-I9l3c0E-_gEPRh6XU-95" value="" style="verticalLabelPosition=bottom;html=1;verticalAlign=top;align=center;shape=mxgraph.floorplan.wall;fillColor=strokeColor;strokeColor=default;fontFamily=Helvetica;fontSize=12;fontColor=default;container=0;movable=1;resizable=1;rotatable=1;deletable=1;editable=1;locked=0;connectable=1;" vertex="1" parent="1">
          <mxGeometry x="112.5" y="2327" width="226" height="10" as="geometry" />
        </mxCell>
        <mxCell id="pt-I9l3c0E-_gEPRh6XU-97" value="" style="verticalLabelPosition=bottom;html=1;verticalAlign=top;align=center;shape=mxgraph.floorplan.flat_tv;strokeColor=default;fontFamily=Helvetica;fontSize=12;fontColor=default;fillColor=#FF0000;rotation=-195;container=0;movable=1;resizable=1;rotatable=1;deletable=1;editable=1;locked=0;connectable=1;" vertex="1" parent="1">
          <mxGeometry x="550" y="2299.9999999999995" width="70" height="10" as="geometry" />
        </mxCell>
        <mxCell id="pt-I9l3c0E-_gEPRh6XU-98" value="" style="shape=rect;shadow=0;html=1;strokeColor=default;align=center;verticalAlign=top;fontFamily=Helvetica;fontSize=12;fontColor=default;fillColor=#00FF00;direction=east;rotation=90;container=0;movable=1;resizable=1;rotatable=1;deletable=1;editable=1;locked=0;connectable=1;" vertex="1" parent="1">
          <mxGeometry x="354.09" y="2022.42" width="251.29" height="134.5" as="geometry" />
        </mxCell>
        <mxCell id="pt-I9l3c0E-_gEPRh6XU-100" value="" style="verticalLabelPosition=bottom;html=1;verticalAlign=top;align=center;shape=mxgraph.floorplan.wallCorner;fillColor=strokeColor;strokeColor=default;fontFamily=Helvetica;fontSize=12;fontColor=default;container=0;movable=1;resizable=1;rotatable=1;deletable=1;editable=1;locked=0;connectable=1;" vertex="1" parent="1">
          <mxGeometry x="639.54" y="1819" width="70.46" height="136" as="geometry" />
        </mxCell>
        <mxCell id="pt-I9l3c0E-_gEPRh6XU-99" value="" style="verticalLabelPosition=bottom;html=1;verticalAlign=top;align=center;shape=mxgraph.floorplan.doorAccordion;dx=0.69;rotation=90;container=0;movable=1;resizable=1;rotatable=1;deletable=1;editable=1;locked=0;connectable=1;" vertex="1" parent="1">
          <mxGeometry x="610.8100000000001" y="2082.51" width="67.37" height="9.48" as="geometry" />
        </mxCell>
        <mxCell id="pt-I9l3c0E-_gEPRh6XU-101" value="" style="verticalLabelPosition=bottom;html=1;verticalAlign=top;align=center;shape=mxgraph.floorplan.window;strokeColor=default;fontFamily=Helvetica;fontSize=12;fontColor=default;fillColor=default;rotation=90;container=0;movable=1;resizable=1;rotatable=1;deletable=1;editable=1;locked=0;connectable=1;" vertex="1" parent="1">
          <mxGeometry x="71.55" y="1869.43" width="91.97" height="10" as="geometry" />
        </mxCell>
        <mxCell id="pt-I9l3c0E-_gEPRh6XU-102" value="" style="verticalLabelPosition=bottom;html=1;verticalAlign=top;align=center;shape=mxgraph.floorplan.window;strokeColor=default;fontFamily=Helvetica;fontSize=12;fontColor=default;fillColor=default;rotation=90;container=0;movable=1;resizable=1;rotatable=1;deletable=1;editable=1;locked=0;connectable=1;" vertex="1" parent="1">
          <mxGeometry x="43.129999999999995" y="2089.6" width="148.81" height="10" as="geometry" />
        </mxCell>
        <mxCell id="pt-I9l3c0E-_gEPRh6XU-103" value="" style="verticalLabelPosition=bottom;html=1;verticalAlign=top;align=center;shape=mxgraph.floorplan.window;strokeColor=default;fontFamily=Helvetica;fontSize=12;fontColor=default;fillColor=default;rotation=90;container=0;movable=1;resizable=1;rotatable=1;deletable=1;editable=1;locked=0;connectable=1;" vertex="1" parent="1">
          <mxGeometry x="78.12" y="2214.3999999999996" width="78.81" height="10" as="geometry" />
        </mxCell>
        <mxCell id="pt-I9l3c0E-_gEPRh6XU-104" value="" style="verticalLabelPosition=bottom;html=1;verticalAlign=top;align=center;shape=mxgraph.floorplan.window;strokeColor=default;fontFamily=Helvetica;fontSize=12;fontColor=default;fillColor=default;rotation=90;container=0;movable=1;resizable=1;rotatable=1;deletable=1;editable=1;locked=0;connectable=1;" vertex="1" parent="1">
          <mxGeometry x="72.1" y="1960.43" width="90.875" height="10" as="geometry" />
        </mxCell>
        <mxCell id="pt-I9l3c0E-_gEPRh6XU-105" value="" style="verticalLabelPosition=bottom;html=1;verticalAlign=top;align=center;shape=mxgraph.floorplan.window;strokeColor=default;fontFamily=Helvetica;fontSize=12;fontColor=default;fillColor=default;rotation=90;container=0;movable=1;resizable=1;rotatable=1;deletable=1;editable=1;locked=0;connectable=1;" vertex="1" parent="1">
          <mxGeometry x="81.03999999999999" y="2052.2799999999997" width="73" height="10" as="geometry" />
        </mxCell>
        <mxCell id="pt-I9l3c0E-_gEPRh6XU-106" value="" style="verticalLabelPosition=bottom;html=1;verticalAlign=top;align=center;shape=mxgraph.floorplan.window;strokeColor=default;fontFamily=Helvetica;fontSize=12;fontColor=default;fillColor=default;rotation=90;container=0;movable=1;resizable=1;rotatable=1;deletable=1;editable=1;locked=0;connectable=1;" vertex="1" parent="1">
          <mxGeometry x="98.24" y="2193.24" width="38.6" height="10" as="geometry" />
        </mxCell>
        <mxCell id="pt-I9l3c0E-_gEPRh6XU-107" value="" style="verticalLabelPosition=bottom;html=1;verticalAlign=top;align=center;shape=mxgraph.floorplan.wallCorner;fillColor=strokeColor;direction=west;strokeColor=default;fontFamily=Helvetica;fontSize=12;fontColor=default;container=0;movable=1;resizable=1;rotatable=1;deletable=1;editable=1;locked=0;connectable=1;" vertex="1" parent="1">
          <mxGeometry x="500" y="2120" width="149.54" height="217" as="geometry" />
        </mxCell>
        <mxCell id="pt-I9l3c0E-_gEPRh6XU-108" value="" style="verticalLabelPosition=bottom;html=1;verticalAlign=top;align=center;shape=mxgraph.floorplan.wall;fillColor=strokeColor;strokeColor=default;fontFamily=Helvetica;fontSize=12;fontColor=default;container=0;movable=1;resizable=1;rotatable=1;deletable=1;editable=1;locked=0;connectable=1;" vertex="1" parent="1">
          <mxGeometry x="349.03999999999996" y="1819" width="290.96" height="10" as="geometry" />
        </mxCell>
        <mxCell id="pt-I9l3c0E-_gEPRh6XU-109" value="" style="verticalLabelPosition=bottom;html=1;verticalAlign=top;align=center;shape=mxgraph.floorplan.doorLeft;aspect=fixed;rotation=-180;container=0;movable=1;resizable=1;rotatable=1;deletable=1;editable=1;locked=0;connectable=1;" vertex="1" parent="1">
          <mxGeometry x="293" y="1768.33" width="55.25" height="58.7" as="geometry" />
        </mxCell>
        <mxCell id="pt-I9l3c0E-_gEPRh6XU-110" value="" style="verticalLabelPosition=bottom;html=1;verticalAlign=top;align=center;shape=mxgraph.floorplan.doorBypass;dx=0.24;strokeColor=default;fontFamily=Helvetica;fontSize=12;fontColor=default;fillColor=#666666;rotation=90;movable=1;resizable=1;rotatable=1;deletable=1;editable=1;locked=0;connectable=1;container=0;" vertex="1" parent="1">
          <mxGeometry x="598.07" y="1995.51" width="92.9" height="10" as="geometry" />
        </mxCell>
        <mxCell id="pt-I9l3c0E-_gEPRh6XU-111" value="" style="verticalLabelPosition=bottom;html=1;verticalAlign=top;align=center;shape=mxgraph.floorplan.wall;fillColor=strokeColor;direction=south;strokeColor=default;fontFamily=Helvetica;fontSize=12;fontColor=default;container=0;movable=1;resizable=1;rotatable=1;deletable=1;editable=1;locked=0;connectable=1;" vertex="1" parent="1">
          <mxGeometry x="639.27" y="2041.92" width="10.46" height="11.53" as="geometry" />
        </mxCell>
        <mxCell id="pt-I9l3c0E-_gEPRh6XU-112" value="" style="verticalLabelPosition=bottom;html=1;verticalAlign=top;align=center;shape=mxgraph.floorplan.sink_double2;strokeColor=default;fontFamily=Helvetica;fontSize=12;fontColor=default;fillColor=default;movable=1;resizable=1;rotatable=1;deletable=1;editable=1;locked=0;connectable=1;container=0;" vertex="1" parent="1">
          <mxGeometry x="350.00499999999965" y="1829.0000000000002" width="86" height="50.97" as="geometry" />
        </mxCell>
        <mxCell id="pt-I9l3c0E-_gEPRh6XU-113" value="" style="rounded=0;whiteSpace=wrap;html=1;strokeColor=default;align=center;verticalAlign=top;fontFamily=Helvetica;fontSize=12;fontColor=default;fillColor=#CCCCCC;movable=1;resizable=1;rotatable=1;deletable=1;editable=1;locked=0;connectable=1;container=0;" vertex="1" parent="1">
          <mxGeometry x="339" y="2269.6" width="191" height="57.4" as="geometry" />
        </mxCell>
        <mxCell id="pt-I9l3c0E-_gEPRh6XU-114" value="" style="verticalLabelPosition=bottom;html=1;verticalAlign=top;align=center;shape=mxgraph.floorplan.window;strokeColor=default;fontFamily=Helvetica;fontSize=12;fontColor=default;fillColor=default;rotation=0;container=0;movable=1;resizable=1;rotatable=1;deletable=1;editable=1;locked=0;connectable=1;" vertex="1" parent="1">
          <mxGeometry x="355" y="1819" width="284" height="10" as="geometry" />
        </mxCell>
        <mxCell id="pt-I9l3c0E-_gEPRh6XU-115" value="" style="verticalLabelPosition=bottom;html=1;verticalAlign=top;align=center;shape=mxgraph.floorplan.window;strokeColor=default;fontFamily=Helvetica;fontSize=12;fontColor=default;fillColor=default;rotation=0;container=0;movable=1;resizable=1;rotatable=1;deletable=1;editable=1;locked=0;connectable=1;" vertex="1" parent="1">
          <mxGeometry x="356" y="1819" width="144" height="10" as="geometry" />
        </mxCell>
        <mxCell id="pt-I9l3c0E-_gEPRh6XU-116" value="" style="verticalLabelPosition=bottom;html=1;verticalAlign=top;align=center;shape=mxgraph.floorplan.window;strokeColor=default;fontFamily=Helvetica;fontSize=12;fontColor=default;fillColor=default;rotation=0;container=0;movable=1;resizable=1;rotatable=1;deletable=1;editable=1;locked=0;connectable=1;" vertex="1" parent="1">
          <mxGeometry x="356" y="1819" width="74" height="10" as="geometry" />
        </mxCell>
        <mxCell id="pt-I9l3c0E-_gEPRh6XU-117" value="" style="verticalLabelPosition=bottom;html=1;verticalAlign=top;align=center;shape=mxgraph.floorplan.window;strokeColor=default;fontFamily=Helvetica;fontSize=12;fontColor=default;fillColor=default;rotation=0;container=0;movable=1;resizable=1;rotatable=1;deletable=1;editable=1;locked=0;connectable=1;" vertex="1" parent="1">
          <mxGeometry x="500" y="1819" width="74" height="10" as="geometry" />
        </mxCell>
        <mxCell id="pt-I9l3c0E-_gEPRh6XU-118" value="" style="rounded=0;whiteSpace=wrap;html=1;strokeColor=default;align=center;verticalAlign=top;fontFamily=Helvetica;fontSize=12;fontColor=default;fillColor=#000000;container=0;movable=1;resizable=1;rotatable=1;deletable=1;editable=1;locked=0;connectable=1;" vertex="1" parent="1">
          <mxGeometry x="640" y="1954.51" width="4.46" height="45.49" as="geometry" />
        </mxCell>
        <mxCell id="pt-I9l3c0E-_gEPRh6XU-119" value="" style="rounded=0;whiteSpace=wrap;html=1;strokeColor=default;align=center;verticalAlign=top;fontFamily=Helvetica;fontSize=12;fontColor=default;fillColor=#000000;container=0;movable=1;resizable=1;rotatable=1;deletable=1;editable=1;locked=0;connectable=1;" vertex="1" parent="1">
          <mxGeometry x="644.2900000000001" y="1954.43" width="4.46" height="4" as="geometry" />
        </mxCell>
        <mxCell id="pt-I9l3c0E-_gEPRh6XU-120" value="" style="verticalLabelPosition=bottom;html=1;verticalAlign=top;align=center;shape=mxgraph.floorplan.window;strokeColor=default;fontFamily=Helvetica;fontSize=12;fontColor=default;fillColor=default;rotation=0;container=0;movable=1;resizable=1;rotatable=1;deletable=1;editable=1;locked=0;connectable=1;" vertex="1" parent="1">
          <mxGeometry x="710" y="1818.98" width="50" height="10" as="geometry" />
        </mxCell>
        <mxCell id="pt-I9l3c0E-_gEPRh6XU-121" value="" style="verticalLabelPosition=bottom;html=1;verticalAlign=top;align=center;shape=mxgraph.floorplan.flat_tv;strokeColor=default;fontFamily=Helvetica;fontSize=12;fontColor=default;fillColor=#FF0000;rotation=15;container=0;movable=1;resizable=1;rotatable=1;deletable=1;editable=1;locked=0;connectable=1;" vertex="1" parent="1">
          <mxGeometry x="752.81" y="1846.22" width="46.62" height="10" as="geometry" />
        </mxCell>
        <mxCell id="pt-I9l3c0E-_gEPRh6XU-122" value="" style="verticalLabelPosition=bottom;html=1;verticalAlign=top;align=center;shape=mxgraph.floorplan.window;strokeColor=default;fontFamily=Helvetica;fontSize=12;fontColor=default;fillColor=default;rotation=0;container=0;movable=1;resizable=1;rotatable=1;deletable=1;editable=1;locked=0;connectable=1;" vertex="1" parent="1">
          <mxGeometry x="760" y="1818.98" width="50" height="10" as="geometry" />
        </mxCell>
        <mxCell id="pt-I9l3c0E-_gEPRh6XU-123" value="" style="verticalLabelPosition=bottom;html=1;verticalAlign=top;align=center;shape=mxgraph.floorplan.wall;fillColor=strokeColor;direction=south;strokeColor=default;fontFamily=Helvetica;fontSize=12;fontColor=default;container=0;movable=1;resizable=1;rotatable=1;deletable=1;editable=1;locked=0;connectable=1;" vertex="1" parent="1">
          <mxGeometry x="810" y="1818.98" width="10" height="9.97" as="geometry" />
        </mxCell>
        <mxCell id="pt-I9l3c0E-_gEPRh6XU-124" value="" style="verticalLabelPosition=bottom;html=1;verticalAlign=top;align=center;shape=mxgraph.floorplan.window;strokeColor=default;fontFamily=Helvetica;fontSize=12;fontColor=default;fillColor=default;rotation=0;container=0;movable=1;resizable=1;rotatable=1;deletable=1;editable=1;locked=0;connectable=1;" vertex="1" parent="1">
          <mxGeometry x="649.5" y="2041.94" width="53.3" height="10" as="geometry" />
        </mxCell>
        <mxCell id="pt-I9l3c0E-_gEPRh6XU-125" value="" style="verticalLabelPosition=bottom;html=1;verticalAlign=top;align=center;shape=mxgraph.floorplan.window;strokeColor=default;fontFamily=Helvetica;fontSize=12;fontColor=default;fillColor=default;rotation=90;container=0;movable=1;resizable=1;rotatable=1;deletable=1;editable=1;locked=0;connectable=1;" vertex="1" parent="1">
          <mxGeometry x="779.34" y="1859.97" width="71.333" height="10" as="geometry" />
        </mxCell>
        <mxCell id="pt-I9l3c0E-_gEPRh6XU-126" value="" style="verticalLabelPosition=bottom;html=1;verticalAlign=top;align=center;shape=mxgraph.floorplan.wall;fillColor=strokeColor;direction=south;strokeColor=default;fontFamily=Helvetica;fontSize=12;fontColor=default;container=0;movable=1;resizable=1;rotatable=1;deletable=1;editable=1;locked=0;connectable=1;" vertex="1" parent="1">
          <mxGeometry x="810" y="2042" width="10" height="9.94" as="geometry" />
        </mxCell>
        <mxCell id="pt-I9l3c0E-_gEPRh6XU-127" value="" style="verticalLabelPosition=bottom;html=1;verticalAlign=top;align=center;shape=mxgraph.floorplan.window;strokeColor=default;fontFamily=Helvetica;fontSize=12;fontColor=default;fillColor=default;rotation=0;container=0;movable=1;resizable=1;rotatable=1;deletable=1;editable=1;locked=0;connectable=1;" vertex="1" parent="1">
          <mxGeometry x="702.8" y="2041.94" width="53.3" height="10" as="geometry" />
        </mxCell>
        <mxCell id="pt-I9l3c0E-_gEPRh6XU-128" value="" style="verticalLabelPosition=bottom;html=1;verticalAlign=top;align=center;shape=mxgraph.floorplan.window;strokeColor=default;fontFamily=Helvetica;fontSize=12;fontColor=default;fillColor=default;rotation=0;container=0;movable=1;resizable=1;rotatable=1;deletable=1;editable=1;locked=0;connectable=1;" vertex="1" parent="1">
          <mxGeometry x="756.1" y="2041.92" width="53.9" height="10" as="geometry" />
        </mxCell>
        <mxCell id="pt-I9l3c0E-_gEPRh6XU-129" value="" style="verticalLabelPosition=bottom;html=1;verticalAlign=top;align=center;shape=mxgraph.floorplan.window;strokeColor=default;fontFamily=Helvetica;fontSize=12;fontColor=default;fillColor=default;rotation=0;container=0;movable=1;resizable=1;rotatable=1;deletable=1;editable=1;locked=0;connectable=1;" vertex="1" parent="1">
          <mxGeometry x="649.75" y="2120" width="53.3" height="10" as="geometry" />
        </mxCell>
        <mxCell id="pt-I9l3c0E-_gEPRh6XU-130" value="" style="verticalLabelPosition=bottom;html=1;verticalAlign=top;align=center;shape=mxgraph.floorplan.wall;fillColor=strokeColor;direction=south;strokeColor=default;fontFamily=Helvetica;fontSize=12;fontColor=default;container=0;movable=1;resizable=1;rotatable=1;deletable=1;editable=1;locked=0;connectable=1;" vertex="1" parent="1">
          <mxGeometry x="809.65" y="2120" width="10" height="9.94" as="geometry" />
        </mxCell>
        <mxCell id="pt-I9l3c0E-_gEPRh6XU-131" value="" style="verticalLabelPosition=bottom;html=1;verticalAlign=top;align=center;shape=mxgraph.floorplan.window;strokeColor=default;fontFamily=Helvetica;fontSize=12;fontColor=default;fillColor=default;rotation=0;container=0;movable=1;resizable=1;rotatable=1;deletable=1;editable=1;locked=0;connectable=1;" vertex="1" parent="1">
          <mxGeometry x="703.05" y="2120" width="53.3" height="10" as="geometry" />
        </mxCell>
        <mxCell id="pt-I9l3c0E-_gEPRh6XU-132" value="" style="verticalLabelPosition=bottom;html=1;verticalAlign=top;align=center;shape=mxgraph.floorplan.window;strokeColor=default;fontFamily=Helvetica;fontSize=12;fontColor=default;fillColor=default;rotation=0;container=0;movable=1;resizable=1;rotatable=1;deletable=1;editable=1;locked=0;connectable=1;" vertex="1" parent="1">
          <mxGeometry x="756.35" y="2120" width="53.3" height="10" as="geometry" />
        </mxCell>
        <mxCell id="pt-I9l3c0E-_gEPRh6XU-133" value="" style="verticalLabelPosition=bottom;html=1;verticalAlign=top;align=center;shape=mxgraph.floorplan.wall;fillColor=strokeColor;direction=south;strokeColor=default;fontFamily=Helvetica;fontSize=12;fontColor=default;movable=1;resizable=1;rotatable=1;deletable=1;editable=1;locked=0;connectable=1;container=0;" vertex="1" parent="1">
          <mxGeometry x="590" y="2329.5" width="10" height="175" as="geometry" />
        </mxCell>
        <mxCell id="pt-I9l3c0E-_gEPRh6XU-134" value="" style="verticalLabelPosition=bottom;html=1;verticalAlign=top;align=center;shape=mxgraph.floorplan.window;strokeColor=default;fontFamily=Helvetica;fontSize=12;fontColor=default;fillColor=default;rotation=0;container=0;movable=1;resizable=1;rotatable=1;deletable=1;editable=1;locked=0;connectable=1;" vertex="1" parent="1">
          <mxGeometry x="649.8" y="2494.5" width="40.06" height="10" as="geometry" />
        </mxCell>
        <mxCell id="pt-I9l3c0E-_gEPRh6XU-135" value="" style="verticalLabelPosition=bottom;html=1;verticalAlign=top;align=center;shape=mxgraph.floorplan.window;strokeColor=default;fontFamily=Helvetica;fontSize=12;fontColor=default;fillColor=default;rotation=90;container=0;movable=1;resizable=1;rotatable=1;deletable=1;editable=1;locked=0;connectable=1;" vertex="1" parent="1">
          <mxGeometry x="801.8499999999999" y="2455.18" width="26.39" height="10" as="geometry" />
        </mxCell>
        <mxCell id="pt-I9l3c0E-_gEPRh6XU-136" value="" style="verticalLabelPosition=bottom;html=1;verticalAlign=top;align=center;shape=mxgraph.floorplan.wall;fillColor=strokeColor;direction=south;strokeColor=default;fontFamily=Helvetica;fontSize=12;fontColor=default;container=0;movable=1;resizable=1;rotatable=1;deletable=1;editable=1;locked=0;connectable=1;" vertex="1" parent="1">
          <mxGeometry x="810.04" y="2472" width="10" height="32.5" as="geometry" />
        </mxCell>
        <mxCell id="pt-I9l3c0E-_gEPRh6XU-137" value="" style="verticalLabelPosition=bottom;html=1;verticalAlign=top;align=center;shape=mxgraph.floorplan.window;strokeColor=default;fontFamily=Helvetica;fontSize=12;fontColor=default;fillColor=default;rotation=0;container=0;movable=1;resizable=1;rotatable=1;deletable=1;editable=1;locked=0;connectable=1;" vertex="1" parent="1">
          <mxGeometry x="689.8599999999999" y="2494.5" width="40.06" height="10" as="geometry" />
        </mxCell>
        <mxCell id="pt-I9l3c0E-_gEPRh6XU-138" value="" style="verticalLabelPosition=bottom;html=1;verticalAlign=top;align=center;shape=mxgraph.floorplan.window;strokeColor=default;fontFamily=Helvetica;fontSize=12;fontColor=default;fillColor=default;rotation=0;container=0;movable=1;resizable=1;rotatable=1;deletable=1;editable=1;locked=0;connectable=1;" vertex="1" parent="1">
          <mxGeometry x="729.92" y="2494.5" width="40.06" height="10" as="geometry" />
        </mxCell>
        <mxCell id="pt-I9l3c0E-_gEPRh6XU-139" value="" style="verticalLabelPosition=bottom;html=1;verticalAlign=top;align=center;shape=mxgraph.floorplan.window;strokeColor=default;fontFamily=Helvetica;fontSize=12;fontColor=default;fillColor=default;rotation=0;container=0;movable=1;resizable=1;rotatable=1;deletable=1;editable=1;locked=0;connectable=1;" vertex="1" parent="1">
          <mxGeometry x="769.94" y="2494.5" width="40.06" height="10" as="geometry" />
        </mxCell>
        <mxCell id="pt-I9l3c0E-_gEPRh6XU-140" value="" style="verticalLabelPosition=bottom;html=1;verticalAlign=top;align=center;shape=mxgraph.floorplan.wall;fillColor=strokeColor;direction=west;strokeColor=default;fontFamily=Helvetica;fontSize=12;fontColor=default;container=0;movable=1;resizable=1;rotatable=1;deletable=1;editable=1;locked=0;connectable=1;" vertex="1" parent="1">
          <mxGeometry x="600.04" y="2437.04" width="49.48" height="9.75" as="geometry" />
        </mxCell>
        <mxCell id="pt-I9l3c0E-_gEPRh6XU-141" value="" style="verticalLabelPosition=bottom;html=1;verticalAlign=top;align=center;shape=mxgraph.floorplan.window;strokeColor=default;fontFamily=Helvetica;fontSize=12;fontColor=default;fillColor=default;rotation=90;container=0;movable=1;resizable=1;rotatable=1;deletable=1;editable=1;locked=0;connectable=1;" vertex="1" parent="1">
          <mxGeometry x="619.63" y="2406.88" width="49.74" height="10" as="geometry" />
        </mxCell>
        <mxCell id="pt-I9l3c0E-_gEPRh6XU-142" value="" style="verticalLabelPosition=bottom;html=1;verticalAlign=top;align=center;shape=mxgraph.floorplan.wall;fillColor=strokeColor;direction=west;strokeColor=default;fontFamily=Helvetica;fontSize=12;fontColor=default;container=0;movable=1;resizable=1;rotatable=1;deletable=1;editable=1;locked=0;connectable=1;" vertex="1" parent="1">
          <mxGeometry x="599.9" y="2494.62" width="49.76" height="9.75" as="geometry" />
        </mxCell>
        <mxCell id="pt-I9l3c0E-_gEPRh6XU-143" value="" style="verticalLabelPosition=bottom;html=1;verticalAlign=top;align=center;shape=mxgraph.floorplan.window;strokeColor=default;fontFamily=Helvetica;fontSize=12;fontColor=default;fillColor=default;rotation=0;container=0;movable=1;resizable=1;rotatable=1;deletable=1;editable=1;locked=0;connectable=1;" vertex="1" parent="1">
          <mxGeometry x="820.25" y="2041.94" width="53.3" height="10" as="geometry" />
        </mxCell>
        <mxCell id="pt-I9l3c0E-_gEPRh6XU-144" value="" style="verticalLabelPosition=bottom;html=1;verticalAlign=top;align=center;shape=mxgraph.floorplan.window;strokeColor=default;fontFamily=Helvetica;fontSize=12;fontColor=default;fillColor=default;rotation=0;container=0;movable=1;resizable=1;rotatable=1;deletable=1;editable=1;locked=0;connectable=1;" vertex="1" parent="1">
          <mxGeometry x="873.55" y="2041.94" width="53.3" height="10" as="geometry" />
        </mxCell>
        <mxCell id="pt-I9l3c0E-_gEPRh6XU-145" value="" style="verticalLabelPosition=bottom;html=1;verticalAlign=top;align=center;shape=mxgraph.floorplan.window;strokeColor=default;fontFamily=Helvetica;fontSize=12;fontColor=default;fillColor=default;rotation=0;container=0;movable=1;resizable=1;rotatable=1;deletable=1;editable=1;locked=0;connectable=1;" vertex="1" parent="1">
          <mxGeometry x="926.85" y="2041.92" width="53.3" height="10" as="geometry" />
        </mxCell>
        <mxCell id="pt-I9l3c0E-_gEPRh6XU-146" value="" style="verticalLabelPosition=bottom;html=1;verticalAlign=top;align=center;shape=mxgraph.floorplan.window;strokeColor=default;fontFamily=Helvetica;fontSize=12;fontColor=default;fillColor=default;rotation=0;container=0;movable=1;resizable=1;rotatable=1;deletable=1;editable=1;locked=0;connectable=1;" vertex="1" parent="1">
          <mxGeometry x="820.25" y="1819.0000000000002" width="53.3" height="10" as="geometry" />
        </mxCell>
        <mxCell id="pt-I9l3c0E-_gEPRh6XU-147" value="" style="verticalLabelPosition=bottom;html=1;verticalAlign=top;align=center;shape=mxgraph.floorplan.window;strokeColor=default;fontFamily=Helvetica;fontSize=12;fontColor=default;fillColor=default;rotation=0;container=0;movable=1;resizable=1;rotatable=1;deletable=1;editable=1;locked=0;connectable=1;" vertex="1" parent="1">
          <mxGeometry x="873.55" y="1819.0000000000002" width="53.3" height="10" as="geometry" />
        </mxCell>
        <mxCell id="pt-I9l3c0E-_gEPRh6XU-148" value="" style="verticalLabelPosition=bottom;html=1;verticalAlign=top;align=center;shape=mxgraph.floorplan.window;strokeColor=default;fontFamily=Helvetica;fontSize=12;fontColor=default;fillColor=default;rotation=0;container=0;movable=1;resizable=1;rotatable=1;deletable=1;editable=1;locked=0;connectable=1;" vertex="1" parent="1">
          <mxGeometry x="926.85" y="1818.9500000000003" width="53.3" height="10" as="geometry" />
        </mxCell>
        <mxCell id="pt-I9l3c0E-_gEPRh6XU-149" value="" style="verticalLabelPosition=bottom;html=1;verticalAlign=top;align=center;shape=mxgraph.floorplan.doorDouble;aspect=fixed;strokeColor=default;fontFamily=Helvetica;fontSize=12;fontColor=default;fillColor=default;rotation=90;movable=1;resizable=1;rotatable=1;deletable=1;editable=1;locked=0;connectable=1;container=0;" vertex="1" parent="1">
          <mxGeometry x="940" y="1997" width="58.13" height="30.89" as="geometry" />
        </mxCell>
        <mxCell id="pt-I9l3c0E-_gEPRh6XU-150" value="" style="verticalLabelPosition=bottom;html=1;verticalAlign=top;align=center;shape=mxgraph.floorplan.window;strokeColor=default;fontFamily=Helvetica;fontSize=12;fontColor=default;fillColor=default;rotation=90;container=0;movable=1;resizable=1;rotatable=1;deletable=1;editable=1;locked=0;connectable=1;" vertex="1" parent="1">
          <mxGeometry x="948.55" y="1932" width="72.085" height="10" as="geometry" />
        </mxCell>
        <mxCell id="pt-I9l3c0E-_gEPRh6XU-151" value="" style="verticalLabelPosition=bottom;html=1;verticalAlign=top;align=center;shape=mxgraph.floorplan.window;strokeColor=default;fontFamily=Helvetica;fontSize=12;fontColor=default;fillColor=default;rotation=0;container=0;movable=1;resizable=1;rotatable=1;deletable=1;editable=1;locked=0;connectable=1;" vertex="1" parent="1">
          <mxGeometry x="820" y="2120" width="53.3" height="10" as="geometry" />
        </mxCell>
        <mxCell id="pt-I9l3c0E-_gEPRh6XU-152" value="" style="verticalLabelPosition=bottom;html=1;verticalAlign=top;align=center;shape=mxgraph.floorplan.window;strokeColor=default;fontFamily=Helvetica;fontSize=12;fontColor=default;fillColor=default;rotation=0;container=0;movable=1;resizable=1;rotatable=1;deletable=1;editable=1;locked=0;connectable=1;" vertex="1" parent="1">
          <mxGeometry x="873.3" y="2120" width="53.3" height="10" as="geometry" />
        </mxCell>
        <mxCell id="pt-I9l3c0E-_gEPRh6XU-153" value="" style="verticalLabelPosition=bottom;html=1;verticalAlign=top;align=center;shape=mxgraph.floorplan.window;strokeColor=default;fontFamily=Helvetica;fontSize=12;fontColor=default;fillColor=default;rotation=0;container=0;movable=1;resizable=1;rotatable=1;deletable=1;editable=1;locked=0;connectable=1;" vertex="1" parent="1">
          <mxGeometry x="926.6" y="2120" width="53.3" height="10" as="geometry" />
        </mxCell>
        <mxCell id="pt-I9l3c0E-_gEPRh6XU-154" value="" style="verticalLabelPosition=bottom;html=1;verticalAlign=top;align=center;shape=mxgraph.floorplan.window;strokeColor=default;fontFamily=Helvetica;fontSize=12;fontColor=default;fillColor=default;rotation=0;container=0;movable=1;resizable=1;rotatable=1;deletable=1;editable=1;locked=0;connectable=1;" vertex="1" parent="1">
          <mxGeometry x="979.63" y="2120" width="53.3" height="10" as="geometry" />
        </mxCell>
        <mxCell id="pt-I9l3c0E-_gEPRh6XU-155" value="" style="verticalLabelPosition=bottom;html=1;verticalAlign=top;align=center;shape=mxgraph.floorplan.window;strokeColor=default;fontFamily=Helvetica;fontSize=12;fontColor=default;fillColor=default;rotation=0;container=0;movable=1;resizable=1;rotatable=1;deletable=1;editable=1;locked=0;connectable=1;" vertex="1" parent="1">
          <mxGeometry x="820.02" y="2436.93" width="53.3" height="10" as="geometry" />
        </mxCell>
        <mxCell id="pt-I9l3c0E-_gEPRh6XU-156" value="" style="verticalLabelPosition=bottom;html=1;verticalAlign=top;align=center;shape=mxgraph.floorplan.window;strokeColor=default;fontFamily=Helvetica;fontSize=12;fontColor=default;fillColor=default;rotation=0;container=0;movable=1;resizable=1;rotatable=1;deletable=1;editable=1;locked=0;connectable=1;" vertex="1" parent="1">
          <mxGeometry x="873.3199999999999" y="2436.93" width="53.3" height="10" as="geometry" />
        </mxCell>
        <mxCell id="pt-I9l3c0E-_gEPRh6XU-157" value="" style="verticalLabelPosition=bottom;html=1;verticalAlign=top;align=center;shape=mxgraph.floorplan.window;strokeColor=default;fontFamily=Helvetica;fontSize=12;fontColor=default;fillColor=default;rotation=0;container=0;movable=1;resizable=1;rotatable=1;deletable=1;editable=1;locked=0;connectable=1;" vertex="1" parent="1">
          <mxGeometry x="926.62" y="2436.93" width="53.3" height="10" as="geometry" />
        </mxCell>
        <mxCell id="pt-I9l3c0E-_gEPRh6XU-158" value="" style="verticalLabelPosition=bottom;html=1;verticalAlign=top;align=center;shape=mxgraph.floorplan.window;strokeColor=default;fontFamily=Helvetica;fontSize=12;fontColor=default;fillColor=default;rotation=0;container=0;movable=1;resizable=1;rotatable=1;deletable=1;editable=1;locked=0;connectable=1;" vertex="1" parent="1">
          <mxGeometry x="979.67" y="2436.93" width="53.3" height="10" as="geometry" />
        </mxCell>
        <mxCell id="pt-I9l3c0E-_gEPRh6XU-159" value="" style="verticalLabelPosition=bottom;html=1;verticalAlign=top;align=center;shape=mxgraph.floorplan.window;strokeColor=default;fontFamily=Helvetica;fontSize=12;fontColor=default;fillColor=default;rotation=0;container=0;movable=1;resizable=1;rotatable=1;deletable=1;editable=1;locked=0;connectable=1;" vertex="1" parent="1">
          <mxGeometry x="820.04" y="2494.5" width="53.3" height="10" as="geometry" />
        </mxCell>
        <mxCell id="pt-I9l3c0E-_gEPRh6XU-160" value="" style="verticalLabelPosition=bottom;html=1;verticalAlign=top;align=center;shape=mxgraph.floorplan.window;strokeColor=default;fontFamily=Helvetica;fontSize=12;fontColor=default;fillColor=default;rotation=0;container=0;movable=1;resizable=1;rotatable=1;deletable=1;editable=1;locked=0;connectable=1;" vertex="1" parent="1">
          <mxGeometry x="873.3399999999999" y="2494.5" width="53.3" height="10" as="geometry" />
        </mxCell>
        <mxCell id="pt-I9l3c0E-_gEPRh6XU-161" value="" style="verticalLabelPosition=bottom;html=1;verticalAlign=top;align=center;shape=mxgraph.floorplan.window;strokeColor=default;fontFamily=Helvetica;fontSize=12;fontColor=default;fillColor=default;rotation=0;container=0;movable=1;resizable=1;rotatable=1;deletable=1;editable=1;locked=0;connectable=1;" vertex="1" parent="1">
          <mxGeometry x="926.64" y="2494.5" width="53.3" height="10" as="geometry" />
        </mxCell>
        <mxCell id="pt-I9l3c0E-_gEPRh6XU-162" value="" style="verticalLabelPosition=bottom;html=1;verticalAlign=top;align=center;shape=mxgraph.floorplan.window;strokeColor=default;fontFamily=Helvetica;fontSize=12;fontColor=default;fillColor=default;rotation=0;container=0;movable=1;resizable=1;rotatable=1;deletable=1;editable=1;locked=0;connectable=1;" vertex="1" parent="1">
          <mxGeometry x="979.6899999999999" y="2494.5" width="53.3" height="10" as="geometry" />
        </mxCell>
        <mxCell id="pt-I9l3c0E-_gEPRh6XU-163" value="" style="verticalLabelPosition=bottom;html=1;verticalAlign=top;align=center;shape=mxgraph.floorplan.doorLeft;aspect=fixed;strokeColor=default;fontFamily=Helvetica;fontSize=12;fontColor=default;fillColor=default;rotation=90;movable=1;resizable=1;rotatable=1;deletable=1;editable=1;locked=0;connectable=1;container=0;" vertex="1" parent="1">
          <mxGeometry x="988.97" y="2445.5" width="47.55" height="50.52" as="geometry" />
        </mxCell>
        <mxCell id="pt-I9l3c0E-_gEPRh6XU-164" value="" style="verticalLabelPosition=bottom;html=1;verticalAlign=top;align=center;shape=mxgraph.floorplan.flat_tv;strokeColor=default;fontFamily=Helvetica;fontSize=12;fontColor=default;fillColor=#FF0000;rotation=90;container=0;movable=1;resizable=1;rotatable=1;deletable=1;editable=1;locked=0;connectable=1;" vertex="1" parent="1">
          <mxGeometry x="987" y="2225.53" width="60" height="10" as="geometry" />
        </mxCell>
        <mxCell id="pt-I9l3c0E-_gEPRh6XU-165" value="" style="verticalLabelPosition=bottom;html=1;verticalAlign=top;align=center;shape=mxgraph.floorplan.workstation;strokeColor=default;fontFamily=Helvetica;fontSize=12;fontColor=default;fillColor=#FF0000;rotation=90;movable=1;resizable=1;rotatable=1;deletable=1;editable=1;locked=0;connectable=1;container=0;" vertex="1" parent="1">
          <mxGeometry x="1034.96" y="2158.22" width="42.07" height="38.31" as="geometry" />
        </mxCell>
        <mxCell id="pt-I9l3c0E-_gEPRh6XU-166" value="" style="verticalLabelPosition=bottom;html=1;verticalAlign=top;align=center;shape=mxgraph.floorplan.doorLeft;aspect=fixed;strokeColor=default;fontFamily=Helvetica;fontSize=12;fontColor=default;fillColor=default;rotation=0;movable=1;resizable=1;rotatable=1;deletable=1;editable=1;locked=0;connectable=1;container=0;" vertex="1" parent="1">
          <mxGeometry x="1090" y="2120" width="48" height="51" as="geometry" />
        </mxCell>
        <mxCell id="pt-I9l3c0E-_gEPRh6XU-167" value="" style="verticalLabelPosition=bottom;html=1;verticalAlign=top;align=center;shape=mxgraph.floorplan.window;strokeColor=default;fontFamily=Helvetica;fontSize=12;fontColor=default;fillColor=default;rotation=0;container=0;movable=1;resizable=1;rotatable=1;deletable=1;editable=1;locked=0;connectable=1;" vertex="1" parent="1">
          <mxGeometry x="1148.21" y="2120" width="51.965" height="10" as="geometry" />
        </mxCell>
        <mxCell id="pt-I9l3c0E-_gEPRh6XU-168" value="" style="verticalLabelPosition=bottom;html=1;verticalAlign=top;align=center;shape=mxgraph.floorplan.wall;fillColor=strokeColor;direction=south;strokeColor=default;fontFamily=Helvetica;fontSize=12;fontColor=default;container=0;movable=1;resizable=1;rotatable=1;deletable=1;editable=1;locked=0;connectable=1;rotation=0;" vertex="1" parent="1">
          <mxGeometry x="1138.07" y="2041.92" width="10" height="88.08" as="geometry" />
        </mxCell>
        <mxCell id="pt-I9l3c0E-_gEPRh6XU-169" value="" style="verticalLabelPosition=bottom;html=1;verticalAlign=top;align=center;shape=mxgraph.floorplan.window;strokeColor=default;fontFamily=Helvetica;fontSize=12;fontColor=default;fillColor=default;rotation=0;container=0;movable=1;resizable=1;rotatable=1;deletable=1;editable=1;locked=0;connectable=1;" vertex="1" parent="1">
          <mxGeometry x="1051" y="2041.9199999999998" width="43.5" height="10" as="geometry" />
        </mxCell>
        <mxCell id="pt-I9l3c0E-_gEPRh6XU-170" value="" style="verticalLabelPosition=bottom;html=1;verticalAlign=top;align=center;shape=mxgraph.floorplan.window;strokeColor=default;fontFamily=Helvetica;fontSize=12;fontColor=default;fillColor=default;rotation=0;container=0;movable=1;resizable=1;rotatable=1;deletable=1;editable=1;locked=0;connectable=1;" vertex="1" parent="1">
          <mxGeometry x="1094.57" y="2041.9199999999998" width="43.5" height="10" as="geometry" />
        </mxCell>
        <mxCell id="pt-I9l3c0E-_gEPRh6XU-171" value="" style="verticalLabelPosition=bottom;html=1;verticalAlign=top;align=center;shape=mxgraph.floorplan.window;strokeColor=default;fontFamily=Helvetica;fontSize=12;fontColor=default;fillColor=default;rotation=0;container=0;movable=1;resizable=1;rotatable=1;deletable=1;editable=1;locked=0;connectable=1;" vertex="1" parent="1">
          <mxGeometry x="1148.07" y="2041.92" width="46.93" height="10" as="geometry" />
        </mxCell>
        <mxCell id="pt-I9l3c0E-_gEPRh6XU-172" value="" style="verticalLabelPosition=bottom;html=1;verticalAlign=top;align=center;shape=mxgraph.floorplan.wall;fillColor=strokeColor;direction=south;strokeColor=default;fontFamily=Helvetica;fontSize=12;fontColor=default;container=0;movable=1;resizable=1;rotatable=1;deletable=1;editable=1;locked=0;connectable=1;rotation=90;" vertex="1" parent="1">
          <mxGeometry x="1193.52" y="2025.07" width="10" height="118.9" as="geometry" />
        </mxCell>
        <mxCell id="pt-I9l3c0E-_gEPRh6XU-173" value="" style="verticalLabelPosition=bottom;html=1;verticalAlign=top;align=center;shape=mxgraph.floorplan.window;strokeColor=default;fontFamily=Helvetica;fontSize=12;fontColor=default;fillColor=default;rotation=-90;container=0;movable=1;resizable=1;rotatable=1;deletable=1;editable=1;locked=0;connectable=1;" vertex="1" parent="1">
          <mxGeometry x="1231.75" y="2201.0299999999997" width="50" height="10" as="geometry" />
        </mxCell>
        <mxCell id="pt-I9l3c0E-_gEPRh6XU-174" value="" style="verticalLabelPosition=bottom;html=1;verticalAlign=top;align=center;shape=mxgraph.floorplan.window;strokeColor=default;fontFamily=Helvetica;fontSize=12;fontColor=default;fillColor=default;rotation=-90;container=0;movable=1;resizable=1;rotatable=1;deletable=1;editable=1;locked=0;connectable=1;" vertex="1" parent="1">
          <mxGeometry x="1231.75" y="2251.0299999999997" width="50" height="10" as="geometry" />
        </mxCell>
        <mxCell id="pt-I9l3c0E-_gEPRh6XU-175" value="" style="verticalLabelPosition=bottom;html=1;verticalAlign=top;align=center;shape=mxgraph.floorplan.window;strokeColor=default;fontFamily=Helvetica;fontSize=12;fontColor=default;fillColor=default;rotation=0;container=0;movable=1;resizable=1;rotatable=1;deletable=1;editable=1;locked=0;connectable=1;" vertex="1" parent="1">
          <mxGeometry x="1089.93" y="2494.5" width="50" height="10" as="geometry" />
        </mxCell>
        <mxCell id="pt-I9l3c0E-_gEPRh6XU-176" value="" style="verticalLabelPosition=bottom;html=1;verticalAlign=top;align=center;shape=mxgraph.floorplan.window;strokeColor=default;fontFamily=Helvetica;fontSize=12;fontColor=default;fillColor=default;rotation=0;container=0;movable=1;resizable=1;rotatable=1;deletable=1;editable=1;locked=0;connectable=1;" vertex="1" parent="1">
          <mxGeometry x="1139.93" y="2494.5" width="50" height="10" as="geometry" />
        </mxCell>
        <mxCell id="pt-I9l3c0E-_gEPRh6XU-178" value="" style="verticalLabelPosition=bottom;html=1;verticalAlign=top;align=center;shape=mxgraph.floorplan.doorLeft;aspect=fixed;strokeColor=default;fontFamily=Helvetica;fontSize=12;fontColor=default;fillColor=default;rotation=-180;movable=1;resizable=1;rotatable=1;deletable=1;editable=1;locked=0;connectable=1;container=0;" vertex="1" parent="1">
          <mxGeometry x="1204.65" y="1997" width="47.1" height="50.06" as="geometry" />
        </mxCell>
        <mxCell id="pt-I9l3c0E-_gEPRh6XU-179" value="&lt;div&gt;&lt;br&gt;&lt;/div&gt;&lt;div&gt;&lt;br&gt;&lt;/div&gt;" style="verticalLabelPosition=bottom;html=1;verticalAlign=top;align=center;shape=mxgraph.floorplan.window;strokeColor=default;fontFamily=Helvetica;fontSize=12;fontColor=default;fillColor=default;rotation=-90;container=0;movable=1;resizable=1;rotatable=1;deletable=1;editable=1;locked=0;connectable=1;" vertex="1" parent="1">
          <mxGeometry x="1220.7499999999998" y="1929" width="72" height="10" as="geometry" />
        </mxCell>
        <mxCell id="pt-I9l3c0E-_gEPRh6XU-180" value="" style="verticalLabelPosition=bottom;html=1;verticalAlign=top;align=center;shape=mxgraph.floorplan.window;strokeColor=default;fontFamily=Helvetica;fontSize=12;fontColor=default;fillColor=default;rotation=0;container=0;movable=1;resizable=1;rotatable=1;deletable=1;editable=1;locked=0;connectable=1;" vertex="1" parent="1">
          <mxGeometry x="1050.7700000000002" y="1818.95" width="48.036" height="10" as="geometry" />
        </mxCell>
        <mxCell id="pt-I9l3c0E-_gEPRh6XU-181" value="" style="verticalLabelPosition=bottom;html=1;verticalAlign=top;align=center;shape=mxgraph.floorplan.doorLeft;aspect=fixed;strokeColor=default;fontFamily=Helvetica;fontSize=12;fontColor=default;fillColor=default;rotation=90;movable=1;resizable=1;rotatable=1;deletable=1;editable=1;locked=0;connectable=1;container=0;" vertex="1" parent="1">
          <mxGeometry x="1139" y="1827" width="59.01" height="62.71" as="geometry" />
        </mxCell>
        <mxCell id="pt-I9l3c0E-_gEPRh6XU-182" value="" style="verticalLabelPosition=bottom;html=1;verticalAlign=top;align=center;shape=mxgraph.floorplan.wall;fillColor=strokeColor;direction=south;strokeColor=default;fontFamily=Helvetica;fontSize=12;fontColor=default;container=0;movable=1;resizable=1;rotatable=1;deletable=1;editable=1;locked=0;connectable=1;rotation=0;" vertex="1" parent="1">
          <mxGeometry x="1251.75" y="2042" width="10" height="138" as="geometry" />
        </mxCell>
        <mxCell id="pt-I9l3c0E-_gEPRh6XU-183" value="" style="verticalLabelPosition=bottom;html=1;verticalAlign=top;align=center;shape=mxgraph.floorplan.wallCorner;fillColor=strokeColor;direction=south;strokeColor=default;fontFamily=Helvetica;fontSize=12;fontColor=default;movable=1;resizable=1;rotatable=1;deletable=1;editable=1;locked=0;connectable=1;container=0;" vertex="1" parent="1">
          <mxGeometry x="500" y="2395.03" width="30" height="109.97" as="geometry" />
        </mxCell>
        <mxCell id="pt-I9l3c0E-_gEPRh6XU-184" value="" style="verticalLabelPosition=bottom;html=1;verticalAlign=top;align=center;shape=mxgraph.floorplan.wallCorner;fillColor=strokeColor;strokeColor=default;fontFamily=Helvetica;fontSize=12;fontColor=default;movable=1;resizable=1;rotatable=1;deletable=1;editable=1;locked=0;connectable=1;container=0;" vertex="1" parent="1">
          <mxGeometry x="112.5" y="2395.03" width="228" height="109.97" as="geometry" />
        </mxCell>
        <mxCell id="pt-I9l3c0E-_gEPRh6XU-185" value="" style="verticalLabelPosition=bottom;html=1;verticalAlign=top;align=center;shape=mxgraph.floorplan.window;strokeColor=default;fontFamily=Helvetica;fontSize=12;fontColor=default;fillColor=default;rotation=0;container=0;movable=1;resizable=1;rotatable=1;deletable=1;editable=1;locked=0;connectable=1;" vertex="1" parent="1">
          <mxGeometry x="339" y="2327" width="80" height="10" as="geometry" />
        </mxCell>
        <mxCell id="pt-I9l3c0E-_gEPRh6XU-186" value="" style="verticalLabelPosition=bottom;html=1;verticalAlign=top;align=center;shape=mxgraph.floorplan.window;strokeColor=default;fontFamily=Helvetica;fontSize=12;fontColor=default;fillColor=default;rotation=0;container=0;movable=1;resizable=1;rotatable=1;deletable=1;editable=1;locked=0;connectable=1;" vertex="1" parent="1">
          <mxGeometry x="419" y="2327" width="80" height="10" as="geometry" />
        </mxCell>
        <mxCell id="pt-I9l3c0E-_gEPRh6XU-187" value="" style="verticalLabelPosition=bottom;html=1;verticalAlign=top;align=center;shape=mxgraph.floorplan.window;strokeColor=default;fontFamily=Helvetica;fontSize=12;fontColor=default;fillColor=default;rotation=0;container=0;movable=1;resizable=1;rotatable=1;deletable=1;editable=1;locked=0;connectable=1;" vertex="1" parent="1">
          <mxGeometry x="401.52" y="2395.03" width="58.24" height="10" as="geometry" />
        </mxCell>
        <mxCell id="pt-I9l3c0E-_gEPRh6XU-188" value="" style="verticalLabelPosition=bottom;html=1;verticalAlign=top;align=center;shape=mxgraph.floorplan.wall;fillColor=strokeColor;direction=west;strokeColor=default;fontFamily=Helvetica;fontSize=12;fontColor=default;container=0;movable=1;resizable=1;rotatable=1;deletable=1;editable=1;locked=0;connectable=1;" vertex="1" parent="1">
          <mxGeometry x="530" y="2461.55" width="60.48" height="9.75" as="geometry" />
        </mxCell>
        <mxCell id="pt-I9l3c0E-_gEPRh6XU-189" value="" style="verticalLabelPosition=bottom;html=1;verticalAlign=top;align=center;shape=mxgraph.floorplan.elevator;strokeColor=default;fontFamily=Helvetica;fontSize=12;fontColor=default;fillColor=#FF0000;container=0;movable=1;resizable=1;rotatable=1;deletable=1;editable=1;locked=0;connectable=1;" vertex="1" parent="1">
          <mxGeometry x="787.0449999999996" y="2472" width="21.17" height="20.64" as="geometry" />
        </mxCell>
        <mxCell id="pt-I9l3c0E-_gEPRh6XU-190" value="" style="verticalLabelPosition=bottom;html=1;verticalAlign=top;align=center;shape=mxgraph.floorplan.wall;fillColor=strokeColor;direction=south;strokeColor=default;fontFamily=Helvetica;fontSize=12;fontColor=default;container=0;movable=1;resizable=1;rotatable=1;deletable=1;editable=1;locked=0;connectable=1;" vertex="1" parent="1">
          <mxGeometry x="1194.88" y="2041.92" width="10" height="10" as="geometry" />
        </mxCell>
        <mxCell id="pt-I9l3c0E-_gEPRh6XU-191" value="&lt;div&gt;&lt;br&gt;&lt;/div&gt;&lt;div&gt;&lt;br&gt;&lt;/div&gt;" style="verticalLabelPosition=bottom;html=1;verticalAlign=top;align=center;shape=mxgraph.floorplan.window;strokeColor=default;fontFamily=Helvetica;fontSize=12;fontColor=default;fillColor=default;rotation=-90;container=0;movable=1;resizable=1;rotatable=1;deletable=1;editable=1;locked=0;connectable=1;" vertex="1" parent="1">
          <mxGeometry x="1220.7499999999998" y="2001" width="72" height="10" as="geometry" />
        </mxCell>
        <mxCell id="pt-I9l3c0E-_gEPRh6XU-192" value="" style="verticalLabelPosition=bottom;html=1;verticalAlign=top;align=center;shape=mxgraph.floorplan.wall;fillColor=strokeColor;direction=south;strokeColor=default;fontFamily=Helvetica;fontSize=12;fontColor=default;container=0;movable=1;resizable=1;rotatable=1;deletable=1;editable=1;locked=0;connectable=1;rotation=90;" vertex="1" parent="1">
          <mxGeometry x="1009.35" y="2011.24" width="11.75" height="71.27" as="geometry" />
        </mxCell>
        <mxCell id="pt-I9l3c0E-_gEPRh6XU-193" value="" style="verticalLabelPosition=bottom;html=1;verticalAlign=top;align=center;shape=mxgraph.floorplan.window;strokeColor=default;fontFamily=Helvetica;fontSize=12;fontColor=default;fillColor=default;rotation=90;container=0;movable=1;resizable=1;rotatable=1;deletable=1;editable=1;locked=0;connectable=1;" vertex="1" parent="1">
          <mxGeometry x="948.55" y="1859.97" width="72.085" height="10" as="geometry" />
        </mxCell>
        <mxCell id="pt-I9l3c0E-_gEPRh6XU-194" value="" style="verticalLabelPosition=bottom;html=1;verticalAlign=top;align=center;shape=mxgraph.floorplan.window;strokeColor=default;fontFamily=Helvetica;fontSize=12;fontColor=default;fillColor=default;rotation=90;container=0;movable=1;resizable=1;rotatable=1;deletable=1;editable=1;locked=0;connectable=1;" vertex="1" parent="1">
          <mxGeometry x="779.34" y="1930.5" width="71.333" height="10" as="geometry" />
        </mxCell>
        <mxCell id="pt-I9l3c0E-_gEPRh6XU-195" value="" style="verticalLabelPosition=bottom;html=1;verticalAlign=top;align=center;shape=mxgraph.floorplan.window;strokeColor=default;fontFamily=Helvetica;fontSize=12;fontColor=default;fillColor=default;rotation=90;container=0;movable=1;resizable=1;rotatable=1;deletable=1;editable=1;locked=0;connectable=1;" vertex="1" parent="1">
          <mxGeometry x="779.34" y="2001" width="71.333" height="10" as="geometry" />
        </mxCell>
        <mxCell id="pt-I9l3c0E-_gEPRh6XU-196" value="" style="verticalLabelPosition=bottom;html=1;verticalAlign=top;align=center;shape=mxgraph.floorplan.window;strokeColor=default;fontFamily=Helvetica;fontSize=12;fontColor=default;fillColor=default;rotation=90;container=0;movable=1;resizable=1;rotatable=1;deletable=1;editable=1;locked=0;connectable=1;" vertex="1" parent="1">
          <mxGeometry x="619.51" y="2357" width="50" height="10" as="geometry" />
        </mxCell>
        <mxCell id="pt-I9l3c0E-_gEPRh6XU-197" value="" style="verticalLabelPosition=bottom;html=1;verticalAlign=top;align=center;shape=mxgraph.floorplan.wall;fillColor=strokeColor;" vertex="1" parent="1">
          <mxGeometry x="1032.9299999999998" y="2120" width="57.07" height="10" as="geometry" />
        </mxCell>
        <mxCell id="pt-I9l3c0E-_gEPRh6XU-198" value="" style="verticalLabelPosition=bottom;html=1;verticalAlign=top;align=center;shape=mxgraph.floorplan.wall;fillColor=strokeColor;" vertex="1" parent="1">
          <mxGeometry x="1032.9899999999998" y="2494.5" width="57.07" height="10" as="geometry" />
        </mxCell>
        <mxCell id="pt-I9l3c0E-_gEPRh6XU-199" value="" style="verticalLabelPosition=bottom;html=1;verticalAlign=top;align=center;shape=mxgraph.floorplan.wall;fillColor=strokeColor;direction=south;" vertex="1" parent="1">
          <mxGeometry x="1080" y="2130" width="10" height="374.5" as="geometry" />
        </mxCell>
        <mxCell id="pt-I9l3c0E-_gEPRh6XU-200" value="" style="verticalLabelPosition=bottom;html=1;verticalAlign=top;align=center;shape=mxgraph.floorplan.wall;fillColor=strokeColor;" vertex="1" parent="1">
          <mxGeometry x="1032.9299999999998" y="2436.93" width="57.07" height="10" as="geometry" />
        </mxCell>
        <mxCell id="pt-I9l3c0E-_gEPRh6XU-201" value="&lt;div&gt;&lt;br&gt;&lt;/div&gt;&lt;div&gt;&lt;br&gt;&lt;/div&gt;" style="verticalLabelPosition=bottom;html=1;verticalAlign=top;align=center;shape=mxgraph.floorplan.window;strokeColor=default;fontFamily=Helvetica;fontSize=12;fontColor=default;fillColor=default;rotation=-90;container=0;movable=1;resizable=1;rotatable=1;deletable=1;editable=1;locked=0;connectable=1;" vertex="1" parent="1">
          <mxGeometry x="1164" y="1929" width="72" height="10" as="geometry" />
        </mxCell>
        <mxCell id="pt-I9l3c0E-_gEPRh6XU-202" value="&lt;div&gt;&lt;br&gt;&lt;/div&gt;&lt;div&gt;&lt;br&gt;&lt;/div&gt;" style="verticalLabelPosition=bottom;html=1;verticalAlign=top;align=center;shape=mxgraph.floorplan.window;strokeColor=default;fontFamily=Helvetica;fontSize=12;fontColor=default;fillColor=default;rotation=-90;container=0;movable=1;resizable=1;rotatable=1;deletable=1;editable=1;locked=0;connectable=1;" vertex="1" parent="1">
          <mxGeometry x="1164" y="2001" width="72" height="10" as="geometry" />
        </mxCell>
        <mxCell id="pt-I9l3c0E-_gEPRh6XU-203" value="" style="verticalLabelPosition=bottom;html=1;verticalAlign=top;align=center;shape=mxgraph.floorplan.window;strokeColor=default;fontFamily=Helvetica;fontSize=12;fontColor=default;fillColor=default;rotation=0;container=0;movable=1;resizable=1;rotatable=1;deletable=1;editable=1;locked=0;connectable=1;" vertex="1" parent="1">
          <mxGeometry x="1098.8100000000002" y="1818.95" width="48.036" height="10" as="geometry" />
        </mxCell>
        <mxCell id="pt-I9l3c0E-_gEPRh6XU-204" value="" style="verticalLabelPosition=bottom;html=1;verticalAlign=top;align=center;shape=mxgraph.floorplan.window;strokeColor=default;fontFamily=Helvetica;fontSize=12;fontColor=default;fillColor=default;rotation=0;container=0;movable=1;resizable=1;rotatable=1;deletable=1;editable=1;locked=0;connectable=1;" vertex="1" parent="1">
          <mxGeometry x="1146.8400000000001" y="1818.95" width="48.036" height="10" as="geometry" />
        </mxCell>
        <mxCell id="pt-I9l3c0E-_gEPRh6XU-205" value="" style="verticalLabelPosition=bottom;html=1;verticalAlign=top;align=center;shape=mxgraph.floorplan.wall;fillColor=strokeColor;" vertex="1" parent="1">
          <mxGeometry x="1195" y="1818.95" width="66.75" height="10" as="geometry" />
        </mxCell>
        <mxCell id="pt-I9l3c0E-_gEPRh6XU-206" value="" style="verticalLabelPosition=bottom;html=1;verticalAlign=top;align=center;shape=mxgraph.floorplan.wall;fillColor=strokeColor;" vertex="1" parent="1">
          <mxGeometry x="1195" y="1888" width="66.75" height="10" as="geometry" />
        </mxCell>
        <mxCell id="pt-I9l3c0E-_gEPRh6XU-207" value="" style="verticalLabelPosition=bottom;html=1;verticalAlign=top;align=center;shape=mxgraph.floorplan.wall;fillColor=strokeColor;direction=south;" vertex="1" parent="1">
          <mxGeometry x="1251.75" y="1824.6" width="10" height="67.51" as="geometry" />
        </mxCell>
        <mxCell id="pt-I9l3c0E-_gEPRh6XU-208" value="" style="verticalLabelPosition=bottom;html=1;verticalAlign=top;align=center;shape=mxgraph.floorplan.wall;fillColor=strokeColor;" vertex="1" parent="1">
          <mxGeometry x="979.63" y="1818.95" width="70.37" height="10" as="geometry" />
        </mxCell>
        <mxCell id="pt-I9l3c0E-_gEPRh6XU-209" value="" style="verticalLabelPosition=bottom;html=1;verticalAlign=top;align=center;shape=mxgraph.floorplan.wall;fillColor=strokeColor;direction=south;" vertex="1" parent="1">
          <mxGeometry x="1040.77" y="1818.95" width="10" height="231.05" as="geometry" />
        </mxCell>
        <mxCell id="pt-I9l3c0E-_gEPRh6XU-210" value="" style="verticalLabelPosition=bottom;html=1;verticalAlign=top;align=center;shape=mxgraph.floorplan.window;strokeColor=default;fontFamily=Helvetica;fontSize=12;fontColor=default;fillColor=default;rotation=90;container=0;movable=1;resizable=1;rotatable=1;deletable=1;editable=1;locked=0;connectable=1;" vertex="1" parent="1">
          <mxGeometry x="776.45" y="2163.5" width="76.75" height="10" as="geometry" />
        </mxCell>
        <mxCell id="pt-I9l3c0E-_gEPRh6XU-211" value="" style="verticalLabelPosition=bottom;html=1;verticalAlign=top;align=center;shape=mxgraph.floorplan.window;strokeColor=default;fontFamily=Helvetica;fontSize=12;fontColor=default;fillColor=default;rotation=90;container=0;movable=1;resizable=1;rotatable=1;deletable=1;editable=1;locked=0;connectable=1;" vertex="1" parent="1">
          <mxGeometry x="776.45" y="2240.2400000000002" width="76.75" height="10" as="geometry" />
        </mxCell>
        <mxCell id="pt-I9l3c0E-_gEPRh6XU-212" value="" style="verticalLabelPosition=bottom;html=1;verticalAlign=top;align=center;shape=mxgraph.floorplan.window;strokeColor=default;fontFamily=Helvetica;fontSize=12;fontColor=default;fillColor=default;rotation=90;container=0;movable=1;resizable=1;rotatable=1;deletable=1;editable=1;locked=0;connectable=1;" vertex="1" parent="1">
          <mxGeometry x="776.45" y="2317" width="76.75" height="10" as="geometry" />
        </mxCell>
        <mxCell id="pt-I9l3c0E-_gEPRh6XU-213" value="" style="verticalLabelPosition=bottom;html=1;verticalAlign=top;align=center;shape=mxgraph.floorplan.window;strokeColor=default;fontFamily=Helvetica;fontSize=12;fontColor=default;fillColor=default;rotation=90;container=0;movable=1;resizable=1;rotatable=1;deletable=1;editable=1;locked=0;connectable=1;" vertex="1" parent="1">
          <mxGeometry x="776.45" y="2394" width="76.75" height="10" as="geometry" />
        </mxCell>
        <mxCell id="pt-I9l3c0E-_gEPRh6XU-214" value="" style="verticalLabelPosition=bottom;html=1;verticalAlign=top;align=center;shape=mxgraph.floorplan.wall;fillColor=strokeColor;direction=west;strokeColor=default;fontFamily=Helvetica;fontSize=12;fontColor=default;container=0;movable=1;resizable=1;rotatable=1;deletable=1;editable=1;locked=0;connectable=1;" vertex="1" parent="1">
          <mxGeometry x="810.2" y="2436.93" width="9.94" height="10" as="geometry" />
        </mxCell>
        <mxCell id="pt-I9l3c0E-_gEPRh6XU-215" value="" style="verticalLabelPosition=bottom;html=1;verticalAlign=top;align=center;shape=mxgraph.floorplan.window;strokeColor=default;fontFamily=Helvetica;fontSize=12;fontColor=default;fillColor=default;rotation=0;container=0;movable=1;resizable=1;rotatable=1;deletable=1;editable=1;locked=0;connectable=1;" vertex="1" parent="1">
          <mxGeometry x="649.66" y="2436.93" width="53.3" height="10" as="geometry" />
        </mxCell>
        <mxCell id="pt-I9l3c0E-_gEPRh6XU-216" value="" style="verticalLabelPosition=bottom;html=1;verticalAlign=top;align=center;shape=mxgraph.floorplan.window;strokeColor=default;fontFamily=Helvetica;fontSize=12;fontColor=default;fillColor=default;rotation=0;container=0;movable=1;resizable=1;rotatable=1;deletable=1;editable=1;locked=0;connectable=1;" vertex="1" parent="1">
          <mxGeometry x="702.9599999999999" y="2436.93" width="53.3" height="10" as="geometry" />
        </mxCell>
        <mxCell id="pt-I9l3c0E-_gEPRh6XU-217" value="" style="verticalLabelPosition=bottom;html=1;verticalAlign=top;align=center;shape=mxgraph.floorplan.window;strokeColor=default;fontFamily=Helvetica;fontSize=12;fontColor=default;fillColor=default;rotation=0;container=0;movable=1;resizable=1;rotatable=1;deletable=1;editable=1;locked=0;connectable=1;" vertex="1" parent="1">
          <mxGeometry x="756.26" y="2436.93" width="53.3" height="10" as="geometry" />
        </mxCell>
        <mxCell id="pt-I9l3c0E-_gEPRh6XU-218" value="" style="verticalLabelPosition=bottom;html=1;verticalAlign=top;align=center;shape=mxgraph.floorplan.dresser;rotation=-90;fillColor=#FF0000;" vertex="1" parent="1">
          <mxGeometry x="624.42" y="2175.28" width="98.12" height="40.94" as="geometry" />
        </mxCell>
        <mxCell id="pt-I9l3c0E-_gEPRh6XU-219" value="" style="verticalLabelPosition=bottom;html=1;verticalAlign=top;align=center;shape=mxgraph.floorplan.dresser;rotation=90;fillColor=#FF0000;" vertex="1" parent="1">
          <mxGeometry x="735.9399999999999" y="2174.06" width="98.12" height="43.37" as="geometry" />
        </mxCell>
        <mxCell id="pt-I9l3c0E-_gEPRh6XU-220" value="" style="verticalLabelPosition=bottom;html=1;verticalAlign=top;align=center;shape=mxgraph.floorplan.dresser;rotation=-90;fillColor=#FF0000;" vertex="1" parent="1">
          <mxGeometry x="1071.02" y="2212.4" width="85" height="39.52" as="geometry" />
        </mxCell>
        <mxCell id="pt-I9l3c0E-_gEPRh6XU-221" value="" style="verticalLabelPosition=bottom;html=1;verticalAlign=top;align=center;shape=mxgraph.floorplan.dresser;rotation=-90;fillColor=#FF0000;" vertex="1" parent="1">
          <mxGeometry x="1071.26" y="2306.69" width="85" height="40" as="geometry" />
        </mxCell>
        <mxCell id="pt-I9l3c0E-_gEPRh6XU-222" value="" style="verticalLabelPosition=bottom;html=1;verticalAlign=top;align=center;shape=mxgraph.floorplan.dresser;rotation=90;fillColor=#FF0000;" vertex="1" parent="1">
          <mxGeometry x="1184.52" y="2428.33" width="85" height="43.37" as="geometry" />
        </mxCell>
        <mxCell id="pt-I9l3c0E-_gEPRh6XU-223" value="" style="verticalLabelPosition=bottom;html=1;verticalAlign=top;align=center;shape=mxgraph.floorplan.dresser;rotation=-90;fillColor=#FF0000;" vertex="1" parent="1">
          <mxGeometry x="1015.97" y="1919.51" width="98.12" height="19.45" as="geometry" />
        </mxCell>
        <mxCell id="pt-I9l3c0E-_gEPRh6XU-224" value="" style="verticalLabelPosition=bottom;html=1;verticalAlign=top;align=center;shape=mxgraph.floorplan.elevator;fillColor=#00FF00;" vertex="1" parent="1">
          <mxGeometry x="826.6" y="2390" width="53.4" height="39.5" as="geometry" />
        </mxCell>
        <mxCell id="pt-I9l3c0E-_gEPRh6XU-225" value="" style="verticalLabelPosition=bottom;html=1;verticalAlign=top;align=center;shape=mxgraph.floorplan.water_cooler;fillColor=#FF0000;" vertex="1" parent="1">
          <mxGeometry x="128.6" y="2104.78" width="58.4" height="58.22" as="geometry" />
        </mxCell>
        <mxCell id="pt-I9l3c0E-_gEPRh6XU-226" value="" style="verticalLabelPosition=bottom;html=1;verticalAlign=top;align=center;shape=mxgraph.floorplan.wall;fillColor=strokeColor;" vertex="1" parent="1">
          <mxGeometry x="1032.9899999999998" y="2240.24" width="57.07" height="10" as="geometry" />
        </mxCell>
        <mxCell id="pt-I9l3c0E-_gEPRh6XU-227" value="" style="verticalLabelPosition=bottom;html=1;verticalAlign=top;align=center;shape=mxgraph.floorplan.window;strokeColor=default;fontFamily=Helvetica;fontSize=12;fontColor=default;fillColor=default;rotation=0;container=0;movable=1;resizable=1;rotatable=1;deletable=1;editable=1;locked=0;connectable=1;" vertex="1" parent="1">
          <mxGeometry x="340" y="2395.03" width="80" height="10" as="geometry" />
        </mxCell>
        <mxCell id="pt-I9l3c0E-_gEPRh6XU-228" value="" style="verticalLabelPosition=bottom;html=1;verticalAlign=top;align=center;shape=mxgraph.floorplan.window;strokeColor=default;fontFamily=Helvetica;fontSize=12;fontColor=default;fillColor=default;rotation=0;container=0;movable=1;resizable=1;rotatable=1;deletable=1;editable=1;locked=0;connectable=1;" vertex="1" parent="1">
          <mxGeometry x="420" y="2395.03" width="80" height="10" as="geometry" />
        </mxCell>
        <mxCell id="pt-I9l3c0E-_gEPRh6XU-229" value="非常食" style="whiteSpace=wrap;html=1;rounded=1;arcSize=50;align=center;verticalAlign=middle;strokeWidth=1;autosize=1;spacing=4;treeFolding=1;treeMoving=1;newEdgeStyle={&quot;edgeStyle&quot;:&quot;entityRelationEdgeStyle&quot;,&quot;startArrow&quot;:&quot;none&quot;,&quot;endArrow&quot;:&quot;none&quot;,&quot;segment&quot;:10,&quot;curved&quot;:1,&quot;sourcePerimeterSpacing&quot;:0,&quot;targetPerimeterSpacing&quot;:0};" vertex="1" collapsed="1" parent="1">
          <mxGeometry x="903.84" y="2381.45" width="56.75" height="20" as="geometry" />
        </mxCell>
        <mxCell id="pt-I9l3c0E-_gEPRh6XU-230" value="" style="edgeStyle=entityRelationEdgeStyle;startArrow=none;endArrow=none;segment=10;curved=1;sourcePerimeterSpacing=0;targetPerimeterSpacing=0;rounded=0;exitX=1.006;exitY=0.496;exitDx=0;exitDy=0;exitPerimeter=0;" edge="1" parent="1" source="pt-I9l3c0E-_gEPRh6XU-224" target="pt-I9l3c0E-_gEPRh6XU-229">
          <mxGeometry relative="1" as="geometry">
            <mxPoint x="879" y="2390" as="sourcePoint" />
            <Array as="points">
              <mxPoint x="890" y="2390" />
            </Array>
          </mxGeometry>
        </mxCell>
        <mxCell id="pt-I9l3c0E-_gEPRh6XU-231" value="PC" style="whiteSpace=wrap;html=1;rounded=1;arcSize=50;align=center;verticalAlign=middle;strokeWidth=1;autosize=1;spacing=4;treeFolding=1;treeMoving=1;newEdgeStyle={&quot;edgeStyle&quot;:&quot;entityRelationEdgeStyle&quot;,&quot;startArrow&quot;:&quot;none&quot;,&quot;endArrow&quot;:&quot;none&quot;,&quot;segment&quot;:10,&quot;curved&quot;:1,&quot;sourcePerimeterSpacing&quot;:0,&quot;targetPerimeterSpacing&quot;:0};" vertex="1" collapsed="1" parent="1">
          <mxGeometry x="960.59" y="2150.56" width="48" height="20" as="geometry" />
        </mxCell>
        <mxCell id="pt-I9l3c0E-_gEPRh6XU-232" value="" style="edgeStyle=entityRelationEdgeStyle;startArrow=none;endArrow=none;segment=10;curved=1;sourcePerimeterSpacing=0;targetPerimeterSpacing=0;rounded=0;exitX=1;exitY=0.5;exitDx=0;exitDy=0;entryX=0.507;entryY=0.999;entryDx=0;entryDy=0;entryPerimeter=0;" edge="1" parent="1" source="pt-I9l3c0E-_gEPRh6XU-231" target="pt-I9l3c0E-_gEPRh6XU-165">
          <mxGeometry relative="1" as="geometry">
            <mxPoint x="1009.5" y="2178.53" as="sourcePoint" />
            <mxPoint x="1020" y="2180" as="targetPoint" />
            <Array as="points">
              <mxPoint x="999.5" y="2168.53" />
            </Array>
          </mxGeometry>
        </mxCell>
        <mxCell id="pt-I9l3c0E-_gEPRh6XU-233" value="テレビ" style="whiteSpace=wrap;html=1;rounded=1;arcSize=50;align=center;verticalAlign=middle;strokeWidth=1;autosize=1;spacing=4;treeFolding=1;treeMoving=1;newEdgeStyle={&quot;edgeStyle&quot;:&quot;entityRelationEdgeStyle&quot;,&quot;startArrow&quot;:&quot;none&quot;,&quot;endArrow&quot;:&quot;none&quot;,&quot;segment&quot;:10,&quot;curved&quot;:1,&quot;sourcePerimeterSpacing&quot;:0,&quot;targetPerimeterSpacing&quot;:0};" vertex="1" parent="1">
          <mxGeometry x="490" y="2278.97" width="51" height="20" as="geometry" />
        </mxCell>
        <mxCell id="pt-I9l3c0E-_gEPRh6XU-234" value="タンス" style="whiteSpace=wrap;html=1;rounded=1;arcSize=50;align=center;verticalAlign=middle;strokeWidth=1;autosize=1;spacing=4;treeFolding=1;treeMoving=1;newEdgeStyle={&quot;edgeStyle&quot;:&quot;entityRelationEdgeStyle&quot;,&quot;startArrow&quot;:&quot;none&quot;,&quot;endArrow&quot;:&quot;none&quot;,&quot;segment&quot;:10,&quot;curved&quot;:1,&quot;sourcePerimeterSpacing&quot;:0,&quot;targetPerimeterSpacing&quot;:0};" vertex="1" collapsed="1" parent="1">
          <mxGeometry x="703.7" y="2261.03" width="51.5" height="19" as="geometry" />
        </mxCell>
        <mxCell id="pt-I9l3c0E-_gEPRh6XU-235" value="" style="edgeStyle=entityRelationEdgeStyle;startArrow=none;endArrow=none;segment=10;curved=1;sourcePerimeterSpacing=0;targetPerimeterSpacing=0;rounded=0;exitX=1;exitY=0.458;exitDx=0;exitDy=0;exitPerimeter=0;entryX=1;entryY=0.5;entryDx=0;entryDy=0;" edge="1" parent="1" source="pt-I9l3c0E-_gEPRh6XU-219" target="pt-I9l3c0E-_gEPRh6XU-234">
          <mxGeometry relative="1" as="geometry">
            <mxPoint x="682" y="2254" as="sourcePoint" />
            <Array as="points">
              <mxPoint x="699.6" y="2115.6" />
              <mxPoint x="680" y="2120" />
              <mxPoint x="680" y="2120" />
              <mxPoint x="670" y="2120" />
            </Array>
            <mxPoint x="709" y="2281" as="targetPoint" />
          </mxGeometry>
        </mxCell>
        <mxCell id="pt-I9l3c0E-_gEPRh6XU-236" value="タンス" style="whiteSpace=wrap;html=1;rounded=1;arcSize=50;align=center;verticalAlign=middle;strokeWidth=1;autosize=1;spacing=4;treeFolding=1;treeMoving=1;newEdgeStyle={&quot;edgeStyle&quot;:&quot;entityRelationEdgeStyle&quot;,&quot;startArrow&quot;:&quot;none&quot;,&quot;endArrow&quot;:&quot;none&quot;,&quot;segment&quot;:10,&quot;curved&quot;:1,&quot;sourcePerimeterSpacing&quot;:0,&quot;targetPerimeterSpacing&quot;:0};" vertex="1" collapsed="1" parent="1">
          <mxGeometry x="1152.75" y="2267.76" width="57.25" height="20" as="geometry" />
        </mxCell>
        <mxCell id="pt-I9l3c0E-_gEPRh6XU-237" value="" style="edgeStyle=entityRelationEdgeStyle;startArrow=none;endArrow=none;segment=10;curved=1;sourcePerimeterSpacing=0;targetPerimeterSpacing=0;rounded=0;exitX=0.5;exitY=0.888;exitDx=0;exitDy=0;exitPerimeter=0;" edge="1" parent="1" source="pt-I9l3c0E-_gEPRh6XU-221" target="pt-I9l3c0E-_gEPRh6XU-236">
          <mxGeometry relative="1" as="geometry">
            <mxPoint x="1144" y="2305.6" as="sourcePoint" />
            <Array as="points">
              <mxPoint x="1154" y="2285.6" />
            </Array>
          </mxGeometry>
        </mxCell>
        <mxCell id="pt-I9l3c0E-_gEPRh6XU-238" value="" style="edgeStyle=entityRelationEdgeStyle;startArrow=none;endArrow=none;segment=10;curved=1;sourcePerimeterSpacing=0;targetPerimeterSpacing=0;rounded=0;exitX=0.499;exitY=0.918;exitDx=0;exitDy=0;exitPerimeter=0;entryX=-0.017;entryY=0.498;entryDx=0;entryDy=0;entryPerimeter=0;" edge="1" parent="1" source="pt-I9l3c0E-_gEPRh6XU-220" target="pt-I9l3c0E-_gEPRh6XU-236">
          <mxGeometry relative="1" as="geometry">
            <mxPoint x="1139" y="2337" as="sourcePoint" />
            <Array as="points">
              <mxPoint x="1164" y="2295.6" />
            </Array>
            <mxPoint x="1162" y="2291" as="targetPoint" />
          </mxGeometry>
        </mxCell>
        <mxCell id="pt-I9l3c0E-_gEPRh6XU-239" value="タンス" style="whiteSpace=wrap;html=1;rounded=1;arcSize=50;align=center;verticalAlign=middle;strokeWidth=1;autosize=1;spacing=4;treeFolding=1;treeMoving=1;newEdgeStyle={&quot;edgeStyle&quot;:&quot;entityRelationEdgeStyle&quot;,&quot;startArrow&quot;:&quot;none&quot;,&quot;endArrow&quot;:&quot;none&quot;,&quot;segment&quot;:10,&quot;curved&quot;:1,&quot;sourcePerimeterSpacing&quot;:0,&quot;targetPerimeterSpacing&quot;:0};" vertex="1" collapsed="1" parent="1">
          <mxGeometry x="1130" y="2386.48" width="54.52" height="20" as="geometry" />
        </mxCell>
        <mxCell id="pt-I9l3c0E-_gEPRh6XU-240" value="棚" style="whiteSpace=wrap;html=1;rounded=1;arcSize=50;align=center;verticalAlign=middle;strokeWidth=1;autosize=1;spacing=4;treeFolding=1;treeMoving=1;newEdgeStyle={&quot;edgeStyle&quot;:&quot;entityRelationEdgeStyle&quot;,&quot;startArrow&quot;:&quot;none&quot;,&quot;endArrow&quot;:&quot;none&quot;,&quot;segment&quot;:10,&quot;curved&quot;:1,&quot;sourcePerimeterSpacing&quot;:0,&quot;targetPerimeterSpacing&quot;:0};" vertex="1" collapsed="1" parent="1">
          <mxGeometry x="1100.19" y="1943.67" width="40.54" height="20" as="geometry" />
        </mxCell>
        <mxCell id="pt-I9l3c0E-_gEPRh6XU-241" value="" style="edgeStyle=entityRelationEdgeStyle;startArrow=none;endArrow=none;segment=10;curved=1;sourcePerimeterSpacing=0;targetPerimeterSpacing=0;rounded=0;exitX=1.006;exitY=0.496;exitDx=0;exitDy=0;exitPerimeter=0;" edge="1" parent="1" target="pt-I9l3c0E-_gEPRh6XU-240">
          <mxGeometry relative="1" as="geometry">
            <mxPoint x="1071.46" y="1929" as="sourcePoint" />
            <Array as="points">
              <mxPoint x="1081.46" y="1909" />
            </Array>
          </mxGeometry>
        </mxCell>
        <mxCell id="pt-I9l3c0E-_gEPRh6XU-242" value="テレビ" style="whiteSpace=wrap;html=1;rounded=1;arcSize=50;align=center;verticalAlign=middle;strokeWidth=1;autosize=1;spacing=4;treeFolding=1;treeMoving=1;newEdgeStyle={&quot;edgeStyle&quot;:&quot;entityRelationEdgeStyle&quot;,&quot;startArrow&quot;:&quot;none&quot;,&quot;endArrow&quot;:&quot;none&quot;,&quot;segment&quot;:10,&quot;curved&quot;:1,&quot;sourcePerimeterSpacing&quot;:0,&quot;targetPerimeterSpacing&quot;:0};" vertex="1" collapsed="1" parent="1">
          <mxGeometry x="1097.46" y="1864.97" width="46" height="20" as="geometry" />
        </mxCell>
        <mxCell id="pt-I9l3c0E-_gEPRh6XU-243" value="" style="edgeStyle=entityRelationEdgeStyle;startArrow=none;endArrow=none;segment=10;curved=1;sourcePerimeterSpacing=0;targetPerimeterSpacing=0;rounded=0;exitX=0.578;exitY=0.96;exitDx=0;exitDy=0;exitPerimeter=0;" edge="1" parent="1" source="pt-I9l3c0E-_gEPRh6XU-270" target="pt-I9l3c0E-_gEPRh6XU-242">
          <mxGeometry relative="1" as="geometry">
            <mxPoint x="1084" y="1837.49" as="sourcePoint" />
            <Array as="points">
              <mxPoint x="1094" y="1817.49" />
            </Array>
          </mxGeometry>
        </mxCell>
        <mxCell id="pt-I9l3c0E-_gEPRh6XU-244" value="" style="edgeStyle=entityRelationEdgeStyle;startArrow=none;endArrow=none;segment=10;curved=1;sourcePerimeterSpacing=0;targetPerimeterSpacing=0;rounded=0;entryX=1;entryY=0.5;entryDx=0;entryDy=0;exitX=0.496;exitY=0.955;exitDx=0;exitDy=0;exitPerimeter=0;" edge="1" parent="1" source="pt-I9l3c0E-_gEPRh6XU-164" target="pt-I9l3c0E-_gEPRh6XU-245">
          <mxGeometry relative="1" as="geometry">
            <mxPoint x="977" y="2236.56" as="sourcePoint" />
            <Array as="points">
              <mxPoint x="901.9100000000001" y="2216.67" />
              <mxPoint x="974" y="2229.56" />
              <mxPoint x="964" y="2229.56" />
            </Array>
          </mxGeometry>
        </mxCell>
        <mxCell id="pt-I9l3c0E-_gEPRh6XU-245" value="テレビ" style="whiteSpace=wrap;html=1;rounded=1;arcSize=50;align=center;verticalAlign=middle;strokeWidth=1;autosize=1;spacing=4;treeFolding=1;treeMoving=1;newEdgeStyle={&quot;edgeStyle&quot;:&quot;entityRelationEdgeStyle&quot;,&quot;startArrow&quot;:&quot;none&quot;,&quot;endArrow&quot;:&quot;none&quot;,&quot;segment&quot;:10,&quot;curved&quot;:1,&quot;sourcePerimeterSpacing&quot;:0,&quot;targetPerimeterSpacing&quot;:0};" vertex="1" parent="1">
          <mxGeometry x="929.15" y="2205.5299999999997" width="51" height="20" as="geometry" />
        </mxCell>
        <mxCell id="pt-I9l3c0E-_gEPRh6XU-246" value="" style="edgeStyle=entityRelationEdgeStyle;startArrow=none;endArrow=none;segment=10;curved=1;sourcePerimeterSpacing=0;targetPerimeterSpacing=0;rounded=0;entryX=1;entryY=0.5;entryDx=0;entryDy=0;exitX=0.005;exitY=0.523;exitDx=0;exitDy=0;exitPerimeter=0;" edge="1" parent="1" source="pt-I9l3c0E-_gEPRh6XU-189" target="pt-I9l3c0E-_gEPRh6XU-247">
          <mxGeometry relative="1" as="geometry">
            <mxPoint x="770" y="2490" as="sourcePoint" />
            <Array as="points">
              <mxPoint x="691.3600000000001" y="2466.14" />
              <mxPoint x="763.45" y="2479.0299999999997" />
              <mxPoint x="753.45" y="2479.0299999999997" />
            </Array>
          </mxGeometry>
        </mxCell>
        <mxCell id="pt-I9l3c0E-_gEPRh6XU-247" value="靴棚" style="whiteSpace=wrap;html=1;rounded=1;arcSize=50;align=center;verticalAlign=middle;strokeWidth=1;autosize=1;spacing=4;treeFolding=1;treeMoving=1;newEdgeStyle={&quot;edgeStyle&quot;:&quot;entityRelationEdgeStyle&quot;,&quot;startArrow&quot;:&quot;none&quot;,&quot;endArrow&quot;:&quot;none&quot;,&quot;segment&quot;:10,&quot;curved&quot;:1,&quot;sourcePerimeterSpacing&quot;:0,&quot;targetPerimeterSpacing&quot;:0};" vertex="1" parent="1">
          <mxGeometry x="715.55" y="2455.18" width="44.45" height="20" as="geometry" />
        </mxCell>
        <mxCell id="pt-I9l3c0E-_gEPRh6XU-248" value="テレビ" style="whiteSpace=wrap;html=1;rounded=1;arcSize=50;align=center;verticalAlign=middle;strokeWidth=1;autosize=1;spacing=4;treeFolding=1;treeMoving=1;newEdgeStyle={&quot;edgeStyle&quot;:&quot;entityRelationEdgeStyle&quot;,&quot;startArrow&quot;:&quot;none&quot;,&quot;endArrow&quot;:&quot;none&quot;,&quot;segment&quot;:10,&quot;curved&quot;:1,&quot;sourcePerimeterSpacing&quot;:0,&quot;targetPerimeterSpacing&quot;:0};" vertex="1" collapsed="1" parent="1">
          <mxGeometry x="703.6999999999999" y="1877" width="46" height="20" as="geometry" />
        </mxCell>
        <mxCell id="pt-I9l3c0E-_gEPRh6XU-249" value="" style="edgeStyle=entityRelationEdgeStyle;startArrow=none;endArrow=none;segment=10;curved=1;sourcePerimeterSpacing=0;targetPerimeterSpacing=0;rounded=0;exitX=0.484;exitY=1.003;exitDx=0;exitDy=0;exitPerimeter=0;" edge="1" parent="1" source="pt-I9l3c0E-_gEPRh6XU-121" target="pt-I9l3c0E-_gEPRh6XU-248">
          <mxGeometry relative="1" as="geometry">
            <mxPoint x="778" y="1846.49" as="sourcePoint" />
            <Array as="points">
              <mxPoint x="788" y="1826.49" />
            </Array>
          </mxGeometry>
        </mxCell>
        <mxCell id="pt-I9l3c0E-_gEPRh6XU-250" value="家電" style="whiteSpace=wrap;html=1;rounded=1;arcSize=50;align=center;verticalAlign=middle;strokeWidth=1;autosize=1;spacing=4;treeFolding=1;treeMoving=1;newEdgeStyle={&quot;edgeStyle&quot;:&quot;entityRelationEdgeStyle&quot;,&quot;startArrow&quot;:&quot;none&quot;,&quot;endArrow&quot;:&quot;none&quot;,&quot;segment&quot;:10,&quot;curved&quot;:1,&quot;sourcePerimeterSpacing&quot;:0,&quot;targetPerimeterSpacing&quot;:0};" vertex="1" collapsed="1" parent="1">
          <mxGeometry x="508" y="1932" width="41" height="19.57" as="geometry" />
        </mxCell>
        <mxCell id="pt-I9l3c0E-_gEPRh6XU-251" value="" style="edgeStyle=entityRelationEdgeStyle;startArrow=none;endArrow=none;segment=10;curved=1;sourcePerimeterSpacing=0;targetPerimeterSpacing=0;rounded=0;exitX=0.496;exitY=0.009;exitDx=0;exitDy=0;exitPerimeter=0;" edge="1" parent="1" source="pt-I9l3c0E-_gEPRh6XU-252" target="pt-I9l3c0E-_gEPRh6XU-250">
          <mxGeometry relative="1" as="geometry">
            <mxPoint x="636" y="1934" as="sourcePoint" />
            <Array as="points">
              <mxPoint x="774.16" y="1879.23" />
            </Array>
          </mxGeometry>
        </mxCell>
        <mxCell id="pt-I9l3c0E-_gEPRh6XU-252" value="" style="verticalLabelPosition=bottom;html=1;verticalAlign=top;align=center;shape=mxgraph.floorplan.elevator;strokeColor=default;fontFamily=Helvetica;fontSize=12;fontColor=default;fillColor=#FF0000;container=0;rotation=-90;movable=1;resizable=1;rotatable=1;deletable=1;editable=1;locked=0;connectable=1;" vertex="1" parent="1">
          <mxGeometry x="588.4949999999997" y="1902.5500000000002" width="33.72" height="63.43" as="geometry" />
        </mxCell>
        <mxCell id="pt-I9l3c0E-_gEPRh6XU-253" value="コンロ" style="whiteSpace=wrap;html=1;rounded=1;arcSize=50;align=center;verticalAlign=middle;strokeWidth=1;autosize=1;spacing=4;treeFolding=1;treeMoving=1;newEdgeStyle={&quot;edgeStyle&quot;:&quot;entityRelationEdgeStyle&quot;,&quot;startArrow&quot;:&quot;none&quot;,&quot;endArrow&quot;:&quot;none&quot;,&quot;segment&quot;:10,&quot;curved&quot;:1,&quot;sourcePerimeterSpacing&quot;:0,&quot;targetPerimeterSpacing&quot;:0};" vertex="1" collapsed="1" parent="1">
          <mxGeometry x="501.5" y="1892.11" width="53.99" height="20" as="geometry" />
        </mxCell>
        <mxCell id="pt-I9l3c0E-_gEPRh6XU-254" value="" style="edgeStyle=entityRelationEdgeStyle;startArrow=none;endArrow=none;segment=10;curved=1;sourcePerimeterSpacing=0;targetPerimeterSpacing=0;rounded=0;exitX=0.511;exitY=0.577;exitDx=0;exitDy=0;exitPerimeter=0;" edge="1" parent="1" source="pt-I9l3c0E-_gEPRh6XU-255" target="pt-I9l3c0E-_gEPRh6XU-253">
          <mxGeometry relative="1" as="geometry">
            <mxPoint x="571.29" y="1872.5" as="sourcePoint" />
            <Array as="points">
              <mxPoint x="585.29" y="1842.99" />
            </Array>
          </mxGeometry>
        </mxCell>
        <mxCell id="pt-I9l3c0E-_gEPRh6XU-255" value="" style="verticalLabelPosition=bottom;html=1;verticalAlign=top;align=center;shape=stencil(xZRNDsIgEIVPw9bQwda1qXoAb4AVLRGhgfp3e2nHakbrz6KJSTfvPeB9YUiZyEMpK8WAy1CpomZixgCO0mu5MtGGmJRoJhxQW7lXaC2l3TZ7EwxC7d1OnfS6vm3RtlRe15ie0Et5I8Wc8Wk0m0/khbM2lmtnQ+stnvKVLHZb7w52TYIu9g34nTPjPX3Azyhv6kLUa2N03pSKfOO8+kCz0cbgTfSc3C1SxugqqAc1CEKdUGoBIwr+jrw7f2iAySgdtv/rAjrUlM6UsFGy7AvZT+P5vVzAP9vHyXDt7aN/eduti/+I1rgC);strokeColor=default;fontFamily=Helvetica;fontSize=12;fontColor=default;fillColor=#FF0000;movable=1;resizable=1;rotatable=1;deletable=1;editable=1;locked=0;connectable=1;container=0;" vertex="1" parent="1">
          <mxGeometry x="549.0049999999997" y="1829.0000000000002" width="90" height="86.97" as="geometry" />
        </mxCell>
        <mxCell id="pt-I9l3c0E-_gEPRh6XU-256" value="" style="rounded=0;whiteSpace=wrap;html=1;strokeColor=default;align=center;verticalAlign=top;fontFamily=Helvetica;fontSize=12;fontColor=default;fillColor=default;movable=1;resizable=1;rotatable=1;deletable=1;editable=1;locked=0;connectable=1;container=0;" vertex="1" parent="1">
          <mxGeometry x="436.00499999999965" y="1829.0000000000002" width="114" height="50.97" as="geometry" />
        </mxCell>
        <mxCell id="pt-I9l3c0E-_gEPRh6XU-257" value="棚" style="whiteSpace=wrap;html=1;rounded=1;arcSize=50;align=center;verticalAlign=middle;strokeWidth=1;autosize=1;spacing=4;treeFolding=1;treeMoving=1;newEdgeStyle={&quot;edgeStyle&quot;:&quot;entityRelationEdgeStyle&quot;,&quot;startArrow&quot;:&quot;none&quot;,&quot;endArrow&quot;:&quot;none&quot;,&quot;segment&quot;:10,&quot;curved&quot;:1,&quot;sourcePerimeterSpacing&quot;:0,&quot;targetPerimeterSpacing&quot;:0};" vertex="1" collapsed="1" parent="1">
          <mxGeometry x="360" y="1897" width="36.01" height="20" as="geometry" />
        </mxCell>
        <mxCell id="pt-I9l3c0E-_gEPRh6XU-258" value="" style="edgeStyle=entityRelationEdgeStyle;startArrow=none;endArrow=none;segment=10;curved=1;sourcePerimeterSpacing=0;targetPerimeterSpacing=0;rounded=0;exitX=0.501;exitY=0.911;exitDx=0;exitDy=0;exitPerimeter=0;" edge="1" parent="1" source="pt-I9l3c0E-_gEPRh6XU-259" target="pt-I9l3c0E-_gEPRh6XU-257">
          <mxGeometry relative="1" as="geometry">
            <mxPoint x="420" y="1880" as="sourcePoint" />
            <Array as="points">
              <mxPoint x="435.29" y="1854.5" />
            </Array>
          </mxGeometry>
        </mxCell>
        <mxCell id="pt-I9l3c0E-_gEPRh6XU-259" value="" style="verticalLabelPosition=bottom;html=1;verticalAlign=top;align=center;shape=mxgraph.floorplan.dresser;rotation=-90;fillColor=#FF0000;" vertex="1" parent="1">
          <mxGeometry x="285.44" y="1902.13" width="59.19" height="37.37" as="geometry" />
        </mxCell>
        <mxCell id="pt-I9l3c0E-_gEPRh6XU-260" value="冷蔵庫" style="whiteSpace=wrap;html=1;rounded=1;arcSize=50;align=center;verticalAlign=middle;strokeWidth=1;autosize=1;spacing=4;treeFolding=1;treeMoving=1;newEdgeStyle={&quot;edgeStyle&quot;:&quot;entityRelationEdgeStyle&quot;,&quot;startArrow&quot;:&quot;none&quot;,&quot;endArrow&quot;:&quot;none&quot;,&quot;segment&quot;:10,&quot;curved&quot;:1,&quot;sourcePerimeterSpacing&quot;:0,&quot;targetPerimeterSpacing&quot;:0};" vertex="1" collapsed="1" parent="1">
          <mxGeometry x="373.06" y="1927" width="51.71" height="20" as="geometry" />
        </mxCell>
        <mxCell id="pt-I9l3c0E-_gEPRh6XU-261" value="" style="edgeStyle=entityRelationEdgeStyle;startArrow=none;endArrow=none;segment=10;curved=1;sourcePerimeterSpacing=0;targetPerimeterSpacing=0;rounded=0;exitX=0.873;exitY=0.956;exitDx=0;exitDy=0;exitPerimeter=0;" edge="1" parent="1" source="pt-I9l3c0E-_gEPRh6XU-262" target="pt-I9l3c0E-_gEPRh6XU-260">
          <mxGeometry relative="1" as="geometry">
            <mxPoint x="364.286" y="1968.16" as="sourcePoint" />
            <Array as="points">
              <mxPoint x="460.0199999999999" y="1878.49" />
            </Array>
          </mxGeometry>
        </mxCell>
        <mxCell id="pt-I9l3c0E-_gEPRh6XU-262" value="" style="verticalLabelPosition=bottom;html=1;verticalAlign=top;align=center;shape=mxgraph.floorplan.refrigerator;strokeColor=default;fontFamily=Helvetica;fontSize=12;fontColor=default;fillColor=#FF0000;rotation=-90;movable=1;resizable=1;rotatable=1;deletable=1;editable=1;locked=0;connectable=1;container=0;" vertex="1" parent="1">
          <mxGeometry x="290" y="1967.5" width="70" height="62" as="geometry" />
        </mxCell>
        <mxCell id="pt-I9l3c0E-_gEPRh6XU-263" value="食器棚" style="whiteSpace=wrap;html=1;rounded=1;arcSize=50;align=center;verticalAlign=middle;strokeWidth=1;autosize=1;spacing=4;treeFolding=1;treeMoving=1;newEdgeStyle={&quot;edgeStyle&quot;:&quot;entityRelationEdgeStyle&quot;,&quot;startArrow&quot;:&quot;none&quot;,&quot;endArrow&quot;:&quot;none&quot;,&quot;segment&quot;:10,&quot;curved&quot;:1,&quot;sourcePerimeterSpacing&quot;:0,&quot;targetPerimeterSpacing&quot;:0};" vertex="1" collapsed="1" parent="1">
          <mxGeometry x="373.06" y="2229.36" width="56.94" height="20" as="geometry" />
        </mxCell>
        <mxCell id="pt-I9l3c0E-_gEPRh6XU-264" value="" style="edgeStyle=entityRelationEdgeStyle;startArrow=none;endArrow=none;segment=10;curved=1;sourcePerimeterSpacing=0;targetPerimeterSpacing=0;rounded=0;exitX=0.503;exitY=0.889;exitDx=0;exitDy=0;exitPerimeter=0;" edge="1" parent="1" source="pt-I9l3c0E-_gEPRh6XU-265" target="pt-I9l3c0E-_gEPRh6XU-263">
          <mxGeometry relative="1" as="geometry">
            <mxPoint x="350" y="2196" as="sourcePoint" />
            <Array as="points">
              <mxPoint x="463.76" y="2193.4" />
            </Array>
          </mxGeometry>
        </mxCell>
        <mxCell id="pt-I9l3c0E-_gEPRh6XU-265" value="" style="verticalLabelPosition=bottom;html=1;verticalAlign=top;align=center;shape=mxgraph.floorplan.dresser;rotation=-90;fillColor=#FF0000;" vertex="1" parent="1">
          <mxGeometry x="274.94" y="2169.5399999999995" width="98.12" height="53.37" as="geometry" />
        </mxCell>
        <mxCell id="pt-I9l3c0E-_gEPRh6XU-266" value="洗濯機" style="whiteSpace=wrap;html=1;rounded=1;arcSize=50;align=center;verticalAlign=middle;strokeWidth=1;autosize=1;spacing=4;treeFolding=1;treeMoving=1;newEdgeStyle={&quot;edgeStyle&quot;:&quot;entityRelationEdgeStyle&quot;,&quot;startArrow&quot;:&quot;none&quot;,&quot;endArrow&quot;:&quot;none&quot;,&quot;segment&quot;:10,&quot;curved&quot;:1,&quot;sourcePerimeterSpacing&quot;:0,&quot;targetPerimeterSpacing&quot;:0};" vertex="1" collapsed="1" parent="1">
          <mxGeometry x="210" y="2101" width="58.35" height="20" as="geometry" />
        </mxCell>
        <mxCell id="pt-I9l3c0E-_gEPRh6XU-267" value="" style="edgeStyle=entityRelationEdgeStyle;startArrow=none;endArrow=none;segment=10;curved=1;sourcePerimeterSpacing=0;targetPerimeterSpacing=0;rounded=0;exitX=1.007;exitY=0.514;exitDx=0;exitDy=0;exitPerimeter=0;" edge="1" parent="1" source="pt-I9l3c0E-_gEPRh6XU-225" target="pt-I9l3c0E-_gEPRh6XU-266">
          <mxGeometry relative="1" as="geometry">
            <mxPoint x="256" y="2047" as="sourcePoint" />
            <Array as="points">
              <mxPoint x="269.65" y="2017.55" />
            </Array>
          </mxGeometry>
        </mxCell>
        <mxCell id="pt-I9l3c0E-_gEPRh6XU-268" value="テーブル" style="whiteSpace=wrap;html=1;rounded=1;arcSize=50;align=center;verticalAlign=middle;strokeWidth=1;autosize=1;spacing=4;treeFolding=1;treeMoving=1;newEdgeStyle={&quot;edgeStyle&quot;:&quot;entityRelationEdgeStyle&quot;,&quot;startArrow&quot;:&quot;none&quot;,&quot;endArrow&quot;:&quot;none&quot;,&quot;segment&quot;:10,&quot;curved&quot;:1,&quot;sourcePerimeterSpacing&quot;:0,&quot;targetPerimeterSpacing&quot;:0};" vertex="1" collapsed="1" parent="1">
          <mxGeometry x="502" y="2229.36" width="68.5" height="20" as="geometry" />
        </mxCell>
        <mxCell id="pt-I9l3c0E-_gEPRh6XU-269" value="" style="edgeStyle=entityRelationEdgeStyle;startArrow=none;endArrow=none;segment=10;curved=1;sourcePerimeterSpacing=0;targetPerimeterSpacing=0;rounded=0;exitX=1;exitY=0.5;exitDx=0;exitDy=0;" edge="1" parent="1" source="pt-I9l3c0E-_gEPRh6XU-98" target="pt-I9l3c0E-_gEPRh6XU-268">
          <mxGeometry relative="1" as="geometry">
            <mxPoint x="486" y="2198.56" as="sourcePoint" />
            <Array as="points">
              <mxPoint x="604.76" y="2195.96" />
            </Array>
          </mxGeometry>
        </mxCell>
        <mxCell id="pt-I9l3c0E-_gEPRh6XU-270" value="" style="verticalLabelPosition=bottom;html=1;verticalAlign=top;align=center;shape=mxgraph.floorplan.flat_tv;strokeColor=default;fontFamily=Helvetica;fontSize=12;fontColor=default;fillColor=#FF0000;rotation=-60;container=0;movable=1;resizable=1;rotatable=1;deletable=1;editable=1;locked=0;connectable=1;" vertex="1" parent="1">
          <mxGeometry x="1050.89" y="1847" width="39" height="10" as="geometry" />
        </mxCell>
        <mxCell id="pt-I9l3c0E-_gEPRh6XU-271" value="" style="verticalLabelPosition=bottom;html=1;verticalAlign=top;align=center;shape=mxgraph.floorplan.printer;rotation=90;fillColor=#FF0000;" vertex="1" parent="1">
          <mxGeometry x="1037.03" y="2369.04" width="40" height="20.96" as="geometry" />
        </mxCell>
        <mxCell id="pt-I9l3c0E-_gEPRh6XU-272" value="プリンター" style="whiteSpace=wrap;html=1;rounded=1;arcSize=50;align=center;verticalAlign=middle;strokeWidth=1;autosize=1;spacing=4;treeFolding=1;treeMoving=1;newEdgeStyle={&quot;edgeStyle&quot;:&quot;entityRelationEdgeStyle&quot;,&quot;startArrow&quot;:&quot;none&quot;,&quot;endArrow&quot;:&quot;none&quot;,&quot;segment&quot;:10,&quot;curved&quot;:1,&quot;sourcePerimeterSpacing&quot;:0,&quot;targetPerimeterSpacing&quot;:0};" vertex="1" collapsed="1" parent="1">
          <mxGeometry x="942.1099999999999" y="2349.0400000000004" width="73.86" height="20" as="geometry" />
        </mxCell>
        <mxCell id="pt-I9l3c0E-_gEPRh6XU-273" value="" style="edgeStyle=entityRelationEdgeStyle;startArrow=none;endArrow=none;segment=10;curved=1;sourcePerimeterSpacing=0;targetPerimeterSpacing=0;rounded=0;exitX=0.514;exitY=1.002;exitDx=0;exitDy=0;exitPerimeter=0;" edge="1" parent="1" source="pt-I9l3c0E-_gEPRh6XU-271" target="pt-I9l3c0E-_gEPRh6XU-272">
          <mxGeometry relative="1" as="geometry">
            <mxPoint x="944.3" y="2380.31" as="sourcePoint" />
            <Array as="points">
              <mxPoint x="954.3" y="2360.31" />
            </Array>
          </mxGeometry>
        </mxCell>
        <mxCell id="pt-I9l3c0E-_gEPRh6XU-274" value="" style="verticalLabelPosition=bottom;html=1;verticalAlign=top;align=center;shape=mxgraph.floorplan.wall;fillColor=strokeColor;" vertex="1" parent="1">
          <mxGeometry x="1189.93" y="2494.5" width="70.07" height="10" as="geometry" />
        </mxCell>
        <mxCell id="pt-I9l3c0E-_gEPRh6XU-275" value="" style="verticalLabelPosition=bottom;html=1;verticalAlign=top;align=center;shape=mxgraph.floorplan.wall;fillColor=strokeColor;direction=south;" vertex="1" parent="1">
          <mxGeometry x="1251.75" y="2281.98" width="10" height="222.52" as="geometry" />
        </mxCell>
        <mxCell id="pt-I9l3c0E-_gEPRh6XU-90" value="" style="verticalLabelPosition=bottom;html=1;verticalAlign=top;align=center;shape=mxgraph.floorplan.wallCorner;fillColor=strokeColor;direction=south;strokeColor=default;fontFamily=Helvetica;fontSize=12;fontColor=default;container=0;movable=1;resizable=1;rotatable=1;deletable=1;editable=1;locked=0;connectable=1;" vertex="1" parent="1">
          <mxGeometry x="112.54" y="1819" width="180" height="256" as="geometry" />
        </mxCell>
        <mxCell id="pt-I9l3c0E-_gEPRh6XU-277" value="" style="verticalLabelPosition=bottom;html=1;verticalAlign=top;align=center;shape=mxgraph.floorplan.wall;fillColor=strokeColor;direction=south;" vertex="1" parent="1">
          <mxGeometry x="153.52" y="2267.76" width="10" height="62.24" as="geometry" />
        </mxCell>
        <mxCell id="pt-I9l3c0E-_gEPRh6XU-85" value="" style="verticalLabelPosition=bottom;html=1;verticalAlign=top;align=center;shape=mxgraph.floorplan.wall;fillColor=strokeColor;direction=south;rotation=-90;container=0;movable=1;resizable=1;rotatable=1;deletable=1;editable=1;locked=0;connectable=1;" vertex="1" parent="1">
          <mxGeometry x="162.85" y="2118.7200000000003" width="10" height="110.64" as="geometry" />
        </mxCell>
      </root>
    </mxGraphModel>
  </diagram>
</mxfile>
